<svg id="Capa_1" enable-background="new 0 0 512 512" height="512" viewBox="0 0 512 512" width="512" xmlns="http://www.w3.org/2000/svg"><g><g><path d="m366.4 364.129-110.4 40.855-110.4-40.855c-6.308-2.334-9.735-9.152-7.845-15.607l41.644-112.219h153.203l41.644 112.219c1.889 6.455-1.537 13.272-7.846 15.607z" fill="#335e80"/><path d="m374.245 348.521-41.644-112.219h-30l41.644 112.219c1.89 6.455-1.536 13.273-7.845 15.607l-95.4 35.305 15 5.551 110.4-40.855c6.309-2.335 9.735-9.152 7.845-15.608z" fill="#235170"/><circle cx="256" cy="40.337" fill="#335e80" r="32.837"/><path d="m256 7.5c-5.406 0-10.502 1.315-15 3.629 10.589 5.449 17.837 16.479 17.837 29.208s-7.248 23.758-17.837 29.208c4.498 2.315 9.594 3.629 15 3.629 18.135 0 32.837-14.702 32.837-32.837 0-18.135-14.702-32.837-32.837-32.837z" fill="#235170"/><path d="m299.199 110.183h-86.398v-43.684c0-12.325 9.991-22.316 22.316-22.316h41.766c12.325 0 22.316 9.991 22.316 22.316z" fill="#3d6d93"/><path d="m276.883 44.183h-30c12.325 0 22.316 9.991 22.316 22.316v43.684h30v-43.684c0-12.325-9.991-22.316-22.316-22.316z" fill="#335e80"/><path d="m320.5 149.5h-129v-38.732c0-15.06 12.208-27.268 27.268-27.268h74.464c15.06 0 27.268 12.208 27.268 27.268z" fill="#335e80"/><path d="m293.232 83.5h-30c15.06 0 27.268 12.208 27.268 27.268v38.732h30v-38.732c0-15.06-12.208-27.268-27.268-27.268z" fill="#235170"/><g><circle cx="346" cy="277.731" fill="#ffe179" r="21.731"/><path d="m346 256c-3.959 0-7.668 1.064-10.865 2.914 6.494 3.758 10.865 10.774 10.865 18.817s-4.372 15.059-10.865 18.817c3.197 1.85 6.906 2.914 10.865 2.914 12.002 0 21.731-9.729 21.731-21.731s-9.729-21.731-21.731-21.731z" fill="#fbd268"/><circle cx="166" cy="277.731" fill="#ffe179" r="21.731"/><path d="m166 256c-4.48 0-8.643 1.357-12.101 3.68 5.807 3.901 9.629 10.529 9.629 18.051s-3.822 14.15-9.629 18.051c3.459 2.323 7.621 3.68 12.101 3.68 12.002 0 21.731-9.729 21.731-21.731s-9.729-21.731-21.731-21.731z" fill="#fbd268"/></g><path d="m342.333 264.603h-9.732v-40.536h9.732c11.194 0 20.268 9.074 20.268 20.268 0 11.193-9.074 20.268-20.268 20.268z" fill="#ffb09e"/><path d="m169.667 264.603h9.732v-40.536h-9.732c-11.194 0-20.268 9.074-20.268 20.268 0 11.193 9.074 20.268 20.268 20.268z" fill="#ffb09e"/><path d="m446 502v-33.805c0-25.068-15.584-47.493-39.078-56.234l-87.619-32.598-10.503.701c-7.831-2.914-13.026-10.389-13.026-18.745v-48.471l-82.197-3.623v48.471c0 6.09-2.759 11.712-7.288 15.441-1.685 1.388-2.472 5.163-4.595 5.953l-8.996.272-87.619 32.598c-23.495 8.742-39.079 31.168-39.079 56.235v33.805c0 5.523 4.477 10 10 10h360c5.523 0 10-4.477 10-10z" fill="#ffcebf"/><g><path d="m406.922 411.961-87.619-32.598-9.136-1.43c-2.124-.79-2.771-3.407-4.456-4.795-4.528-3.729-7.288-9.352-7.288-15.441v-48.471l-30 15v48.471c0 8.356 5.195 15.831 13.026 18.745l95.472 35.52c23.495 8.74 39.079 31.166 39.079 56.233v28.805h20c5.523 0 10-4.477 10-10v-33.805c0-25.067-15.584-47.493-39.078-56.234z" fill="#ffb09e"/></g><path d="m362.41 504.5c5.99-11.54 11.68-25.15 15.88-40.79 6.39-23.73 7.36-44.62 6.84-59.86l-56.772-21.118c-2.057 13.224-9.45 49.244-40.064 80.98-26.599 27.574-56.658 37.331-69.922 40.788l-29.372 7.5h169z" fill="#ffe179"/><path d="m328.358 382.732c-.795 5.112-2.396 13.637-5.818 23.997l54.382 20.232c2.568.955 5.035 2.084 7.405 3.352.951-9.976 1.061-18.912.804-26.459l-56.025-20.844z" fill="#fbd268"/><path d="m294.245 349.659-33.851 14.484c-2.772 1.356-6.015 1.356-8.788 0l-35.5-20.32c-20.056-9.81-32.773-30.187-32.773-52.514l-3.935-22.651v-59.591l83.382-30 69.821 30v30l-3.172 29.589-2.411 28.49c0 22.326-12.717 42.703-32.773 52.513z" fill="#ffcebf"/><path d="m302.601 209.067v104.589s-18.3 26.193-38.356 36.003l-21.712 9.29 9.074 5.194c2.772 1.356 6.015 1.356 8.788 0l33.851-14.484c20.056-9.81 38.357-32.499 38.357-54.826v-26.177-59.589z" fill="#ffb09e"/><path d="m212.172 351.169 39.435 19.289c2.772 1.356 6.015 1.356 8.788 0l39.435-19.289c20.056-9.81 32.773-30.187 32.773-52.514v-29.999c-.311 4.691-1.992 21.327-15.346 32.756-3.978 3.404-8.073 5.561-11.555 6.954-16.567 2.1-33.134 4.2-49.7 6.3l-49.7-6.3c-3.685-1.291-8.409-3.523-12.933-7.495-13.148-11.545-13.894-28.395-13.968-32.213v29.997c-.002 22.327 12.715 42.704 32.771 52.514z" fill="#3d6d93"/><path d="m287.368 125.867h-62.737c-24.982 0-45.233 20.252-45.233 45.233v67.967l31.582-20.331c9.311-5.994 21.092-6.633 30.996-1.681 8.828 4.414 19.219 4.414 28.046 0 9.904-4.952 21.686-4.313 30.996 1.681l31.582 20.331v-67.967c.001-24.982-20.25-45.233-45.232-45.233z" fill="#3d6d93"/><g><path d="m287.368 125.867h-30c24.981 0 45.233 20.252 45.233 45.233v48.654l30 19.313v-67.967c0-24.982-20.251-45.233-45.233-45.233z" fill="#335e80"/></g><circle cx="256" cy="411" fill="#3d6d93" r="17.5"/><g fill="#335e80"><path d="m256 393.5c-3.75 0-7.216 1.19-10.064 3.198 4.493 3.168 7.436 8.387 7.436 14.302s-2.943 11.135-7.436 14.302c2.848 2.008 6.314 3.198 10.064 3.198 9.665 0 17.5-7.835 17.5-17.5s-7.835-17.5-17.5-17.5z"/><path d="m305.644 296.612c.506-2.506-2.516-4.225-4.399-2.496-1.865 1.712-4.146 3.284-6.901 4.339-13.854 5.303-27.786-7.036-36.939-7.138-.937-.01-1.873-.01-2.81 0-9.154.103-23.086 12.442-36.939 7.138-2.755-1.054-5.036-2.627-6.901-4.339-1.884-1.729-4.905-.01-4.399 2.496 1.381 6.845 4.883 15.982 13.691 21.626 9.706 6.219 23.759 6.852 32.989 1.728 1.84-1.022 4.087-1.022 5.927 0 9.23 5.124 23.283 4.491 32.989-1.728 8.809-5.643 12.311-14.781 13.692-21.626z"/></g></g><path d="m141 468.652c-4.142 0-7.5 3.358-7.5 7.5v28.348c0 4.142 3.358 7.5 7.5 7.5s7.5-3.358 7.5-7.5v-28.348c0-4.142-3.358-7.5-7.5-7.5zm180.626 2.134c0-4.142-3.358-7.5-7.5-7.5s-7.5 3.358-7.5 7.5 3.358 7.5 7.5 7.5 7.5-3.358 7.5-7.5zm-45 26.214c-4.142 0-7.5 3.358-7.5 7.5s3.358 7.5 7.5 7.5 7.5-3.358 7.5-7.5-3.358-7.5-7.5-7.5zm45 0c-4.142 0-7.5 3.358-7.5 7.5s3.358 7.5 7.5 7.5 7.5-3.358 7.5-7.5-3.358-7.5-7.5-7.5zm-45.479-21.787c-2.471-3.324-7.171-4.015-10.493-1.544-14.577 10.837-31.581 18.989-49.173 23.574-4.008 1.044-6.411 5.141-5.366 9.149 1.054 4.043 5.226 6.388 9.149 5.366 19.44-5.066 38.23-14.075 54.339-26.051 3.325-2.472 4.016-7.17 1.544-10.494zm-65.477-215.096c3.427 1.829 8.739 3.875 15.348 3.875 5.332 0 10.601-1.335 15.34-3.89 3.646-1.966 5.008-6.515 3.042-10.161-1.965-3.646-6.515-5.008-10.161-3.042-2.185 1.178-4.521 1.866-6.947 2.046-4.133.308-7.48-.952-9.562-2.062-3.654-1.949-8.198-.569-10.147 3.087-1.949 3.654-.567 8.197 3.087 10.147zm198.865 144.814c-12.401-4.612-52.279-19.496-65.716-24.45l25.188-9.319c9.891-3.651 15.941-15.058 12.273-25.252l-16.885-45.486c6.604-5.364 10.834-13.542 10.834-22.694 0-7.741-3.083-15.042-8.352-20.43 2.054-3.873 3.224-8.285 3.224-12.966 0-15.312-12.457-27.768-27.769-27.768h-2.231v-45.466c0-12.746-4.547-24.449-12.102-33.575v-26.755c0-14.399-8.798-26.78-21.3-32.054v-12.216c0-9.087-4.091-17.232-10.521-22.706.098-1.147.161-2.299.161-3.454.001-22.244-18.096-40.34-40.339-40.34-22.244 0-40.34 18.096-40.34 40.34 0 1.155.063 2.307.161 3.454-6.431 5.474-10.521 13.619-10.521 22.706v12.217c-12.502 5.273-21.3 17.654-21.3 32.053v26.754c-7.555 9.127-12.102 20.83-12.102 33.575v6.84c0 4.142 3.358 7.5 7.5 7.5s7.5-3.358 7.5-7.5v-6.84c0-20.806 16.927-37.733 37.733-37.733h62.736c20.807 0 37.733 16.927 37.733 37.733v54.219l-20.022-12.889c-11.48-7.39-26.198-8.188-38.409-2.083-6.681 3.34-14.659 3.339-21.339 0-12.211-6.106-26.93-5.308-38.41 2.082l-20.022 12.89v-14.77c0-4.142-3.358-7.5-7.5-7.5s-7.5 3.358-7.5 7.5v6.018h-2.232c-15.312 0-27.768 12.457-27.768 27.768 0 4.681 1.169 9.093 3.224 12.966-5.269 5.387-8.352 12.688-8.352 20.429 0 9.151 4.23 17.33 10.834 22.693l-16.885 45.487c-3.646 10.036 2.39 21.596 12.279 25.254l25.183 9.317-65.715 24.449c-26.298 9.782-43.966 35.208-43.966 63.271v36.3c0 4.142 3.358 7.5 7.5 7.5s7.5-3.358 7.5-7.5v-36.3c0-21.828 13.742-41.604 34.195-49.211l88.785-33.033c8.294 12.61 20.501 22.353 34.658 27.666 1.315 12.557 11.962 22.378 24.862 22.378 12.905 0 23.556-9.829 24.864-22.393 14.152-5.299 26.359-15.036 34.656-27.651l4.35 1.618c-3.16 15.57-10.954 40.246-30.111 63.273-2.649 3.184-2.215 7.913.969 10.562 3.168 2.636 7.901 2.23 10.562-.969 20.24-24.329 29.004-50.307 32.79-67.579l43.654 16.241c.161 17.853-2.078 35.543-6.687 52.661-3.625 13.498-8.771 26.714-15.293 39.28-1.909 3.677-.476 8.204 3.201 10.112 3.603 1.87 8.181.517 10.111-3.201 7.021-13.526 12.562-27.758 16.466-42.295 4.471-16.605 6.873-33.708 7.179-50.984l11.594 4.314c20.452 7.607 34.194 27.383 34.194 49.211v36.3c0 4.142 3.357 7.5 7.5 7.5s7.5-3.358 7.5-7.5v-36.3c.001-28.063-17.667-53.489-43.964-63.269zm-153.535-389.931c12.835 0 23.464 9.594 25.111 21.986-1.383-.197-2.794-.305-4.231-.305h-41.76c-1.437 0-2.848.108-4.231.305 1.647-12.392 12.276-21.986 25.111-21.986zm-35.7 51.5c0-8.172 6.648-14.82 14.82-14.82h41.76c8.172 0 14.82 6.648 14.82 14.82v9.5h-71.4zm92.7 58.538c-7.594-4.243-16.333-6.671-25.632-6.671h-62.736c-9.299 0-18.038 2.429-25.632 6.671v-14.268c0-10.901 8.869-19.77 19.77-19.77h74.46c10.901 0 19.77 8.869 19.77 19.77zm27.102 106.528h2.231c7.041 0 12.769 5.728 12.769 12.768s-5.728 12.768-12.769 12.768h-2.231zm0 40.537h2.231c5.189 0 10.047-1.434 14.207-3.921 2.337 2.579 3.691 5.968 3.691 9.549 0 9.959-11.021 17.175-20.129 12.949zm-153.204-28.945 28.142-18.116c7.048-4.537 16.084-5.027 23.583-1.278 10.881 5.439 23.873 5.44 34.755 0 7.498-3.75 16.533-3.259 23.582 1.278l28.142 18.116v25.193c-.371 5.276-2.31 17.836-11.964 26.661-.34-3.204-2.194-6.122-5.12-7.773-3.844-2.167-8.603-1.623-11.844 1.352-1.406 1.29-2.924 2.252-4.512 2.86-5.949 2.278-12.871-.64-19.565-3.46-5.026-2.118-9.773-4.119-14.609-4.173-.991-.01-1.982-.01-2.977 0-4.834.054-9.582 2.055-14.607 4.173-6.694 2.821-13.616 5.738-19.565 3.461-1.588-.608-3.106-1.57-4.511-2.86-3.242-2.976-8.003-3.519-11.846-1.351-3.114 1.756-5.016 4.947-5.168 8.389-10.473-8.806-11.812-21.703-11.915-27.107v-25.365zm69.102 83.73c5.123 2.674 11.218 3.991 17.433 3.991 7.917 0 16.028-2.137 22.564-6.325 3.836-2.457 6.841-5.415 9.22-8.563 1.046-.107 2.311-.271 3.282-.662 5.058-2.035 9.646-4.801 13.638-8.221.908-.777 1.769-1.575 2.588-2.39-2.067 16.944-12.67 32.122-28.192 39.714l-39.435 19.289c-.699.342-1.499.342-2.197 0l-39.435-19.289c-15.266-7.467-25.777-22.271-28.086-38.877.341.319.684.637 1.04.951 4.438 3.897 9.614 6.904 15.386 8.938.936.33 2.002.426 2.974.546 2.379 3.149 5.384 6.106 9.22 8.564 11.668 7.475 28.35 8.415 40 2.334zm-37.554-20.358c10.302 2.436 20.003-1.65 27.282-4.717 3.31-1.395 7.061-2.976 8.949-2.997.882-.01 1.763-.01 2.644 0 1.89.021 5.641 1.602 8.95 2.997 7.278 3.068 16.979 7.155 27.282 4.718-1.459 2.024-3.307 3.894-5.647 5.394-7.284 4.666-18.397 5.318-25.304 1.484-4.134-2.294-9.071-2.295-13.206.001-6.906 3.833-18.02 3.182-25.303-1.485-2.341-1.501-4.189-3.371-5.647-5.395zm-48.779-74.964h2.232v25.536h-2.232c-7.04.001-12.768-5.731-12.768-12.768-.001-7.04 5.727-12.768 12.768-12.768zm-14.206 36.616c4.159 2.487 9.017 3.921 14.206 3.921h2.232v18.577c-9.213 4.268-20.128-2.766-20.128-12.949-.001-3.581 1.353-6.971 3.69-9.549zm42.474 101.229-8.199 3.051-41.528-15.364c-2.541-.942-3.966-3.667-3.314-6.271l16.425-44.246c1.525.247 3.088.38 4.681.38 2.168 0 4.29-.255 6.354-.71 2.478 20.997 15.09 39.921 33.726 50.193.279 5.55-2.732 11-8.145 12.967zm58.065 51.589c-5.514 0-10-4.486-10-10s4.486-10 10-10 10 4.486 10 10-4.486 10-10 10zm21.757-22.291c-4.299-7.58-12.438-12.709-21.757-12.709-9.323 0-17.464 5.133-21.762 12.718-9.592-4.06-17.925-10.732-23.975-19.188 5.136-3.943 8.764-9.616 10.165-15.973l27.882 13.638c2.443 1.195 5.066 1.792 7.688 1.792s5.246-.598 7.689-1.792l27.883-13.638c1.402 6.358 5.03 12.032 10.166 15.974-6.052 8.461-14.388 15.129-23.979 19.178zm44.508-26.248-8.201-3.051c-5.251-1.966-8.628-7.339-8.144-12.968 18.637-10.272 31.248-29.195 33.727-50.192 2.064.456 4.185.71 6.354.71 1.594 0 3.156-.133 4.681-.38l16.426 44.246c.651 2.604-.772 5.329-3.309 6.269zm-51.595-112.344c3.428 1.829 8.74 3.875 15.35 3.875 5.331 0 10.599-1.335 15.339-3.89 3.646-1.966 5.009-6.515 3.043-10.161-1.965-3.646-6.512-5.008-10.16-3.043-2.186 1.178-4.523 1.867-6.948 2.046-4.137.305-7.482-.952-9.562-2.062-3.658-1.95-8.198-.566-10.147 3.088-1.951 3.655-.569 8.198 3.085 10.147zm88.456 205.78c0-4.142-3.358-7.5-7.5-7.5s-7.5 3.358-7.5 7.5 3.358 7.5 7.5 7.5 7.5-3.358 7.5-7.5zm-7.5-32.611c4.142 0 7.5-3.358 7.5-7.5s-3.358-7.5-7.5-7.5-7.5 3.358-7.5 7.5 3.358 7.5 7.5 7.5z"/></g></svg>