<svg id="Capa_1" enable-background="new 0 0 512.002 512.002" height="512" viewBox="0 0 512.002 512.002" width="512" xmlns="http://www.w3.org/2000/svg"><g><g><circle cx="367.911" cy="144.22" fill="#f27182" r="35.154"/><path d="m365.424 144.219c0-13.517 7.634-25.246 18.821-31.128-4.881-2.567-10.436-4.026-16.333-4.026-19.415 0-35.154 15.739-35.154 35.154s15.739 35.154 35.154 35.154c5.898 0 11.452-1.459 16.333-4.026-11.188-5.882-18.821-17.61-18.821-31.128z" fill="#ed5469"/><path d="m289.772 57.376h206.156c4.807 0 8.704-3.897 8.704-8.704v-32.468c0-4.807-3.897-8.704-8.704-8.704h-207.773c-31.46 0-56.963 25.503-56.963 56.963v157.897c0 4.807-3.897 8.704-8.704 8.704h-156.279c-4.807 0-8.704-3.897-8.704-8.704v-206.156c0-4.807-3.897-8.704-8.704-8.704h-32.468c-4.807 0-8.704 3.897-8.704 8.704v207.772c0 31.46 25.503 56.963 56.963 56.963h157.896c4.807 0 8.704 3.897 8.704 8.704v156.279c0 4.807-3.897 8.704-8.704 8.704h-206.155c-4.807 0-8.704 3.897-8.704 8.704v32.468c0 4.807 3.897 8.704 8.704 8.704h207.772c31.46 0 56.963-25.503 56.963-56.963v-157.896c0-4.807 3.897-8.704 8.704-8.704h156.28c4.807 0 8.704 3.897 8.704 8.704v206.155c0 4.807 3.897 8.704 8.704 8.704h32.468c4.807 0 8.704-3.897 8.704-8.704v-207.772c0-31.46-25.503-56.963-56.963-56.963h-157.897c-4.807 0-8.704-3.897-8.704-8.704v-156.279c0-4.807 3.897-8.704 8.704-8.704z" fill="#f27182"/><g fill="#ed5469"><path d="m258.192 222.36v-157.897c0-31.46 25.503-56.963 56.963-56.963h-27c-31.46 0-56.963 25.503-56.963 56.963v157.897c0 4.807-3.897 8.704-8.704 8.704h27c4.807-.001 8.704-3.897 8.704-8.704z"/><path d="m64.592 280.939h27c-31.459 0-56.963-25.503-56.963-56.963v-207.772c0-4.807 3.897-8.704 8.704-8.704h-27c-4.807 0-8.704 3.897-8.704 8.704v207.772c0 31.46 25.504 56.963 56.963 56.963z"/><path d="m222.488 454.626h27c4.807 0 8.704-3.897 8.704-8.704v-156.279c0-4.807-3.897-8.704-8.704-8.704h-27c4.807 0 8.704 3.897 8.704 8.704v156.279c0 4.807-3.897 8.704-8.704 8.704z"/><path d="m34.629 495.798v-32.468c0-4.807 3.897-8.704 8.704-8.704h-27c-4.807 0-8.704 3.897-8.704 8.704v32.468c0 4.807 3.897 8.704 8.704 8.704h27c-4.807 0-8.704-3.897-8.704-8.704z"/><path d="m481.755 495.798v-206.155c0-4.807-3.897-8.704-8.704-8.704h-27c4.807 0 8.704 3.897 8.704 8.704v206.155c0 4.807 3.897 8.704 8.704 8.704h27c-4.807 0-8.704-3.897-8.704-8.704z"/></g><circle cx="144.349" cy="144.22" fill="#f27182" r="35.154"/><path d="m141.861 144.219c0-13.517 7.634-25.246 18.821-31.128-4.881-2.567-10.436-4.026-16.333-4.026-19.415 0-35.154 15.739-35.154 35.154s15.739 35.154 35.154 35.154c5.898 0 11.452-1.459 16.333-4.026-11.187-5.882-18.821-17.61-18.821-31.128z" fill="#ed5469"/><circle cx="367.911" cy="367.782" fill="#f27182" r="35.154"/><path d="m365.424 367.782c0-13.517 7.634-25.246 18.821-31.128-4.881-2.567-10.436-4.026-16.333-4.026-19.415 0-35.154 15.739-35.154 35.154s15.739 35.154 35.154 35.154c5.898 0 11.452-1.459 16.333-4.026-11.188-5.882-18.821-17.61-18.821-31.128z" fill="#ed5469"/><circle cx="144.349" cy="367.782" fill="#f27182" r="35.154"/><path d="m141.861 367.782c0-13.517 7.634-25.246 18.821-31.128-4.881-2.567-10.436-4.026-16.333-4.026-19.415 0-35.154 15.739-35.154 35.154s15.739 35.154 35.154 35.154c5.898 0 11.452-1.459 16.333-4.026-11.187-5.882-18.821-17.61-18.821-31.128z" fill="#ed5469"/></g><g><path d="m325.128 144.22c0 23.52 19.135 42.654 42.654 42.654s42.654-19.135 42.654-42.654-19.135-42.654-42.654-42.654-42.654 19.134-42.654 42.654zm70.309 0c0 15.249-12.405 27.654-27.654 27.654s-27.654-12.406-27.654-27.654 12.405-27.654 27.654-27.654 27.654 12.405 27.654 27.654z"/><path d="m186.874 144.22c0-23.52-19.135-42.654-42.654-42.654s-42.654 19.135-42.654 42.654 19.135 42.654 42.654 42.654 42.654-19.135 42.654-42.654zm-70.309 0c0-15.249 12.405-27.654 27.654-27.654s27.654 12.406 27.654 27.654-12.405 27.654-27.654 27.654-27.654-12.406-27.654-27.654z"/><path d="m367.782 325.128c-23.52 0-42.654 19.135-42.654 42.654s19.135 42.654 42.654 42.654 42.654-19.135 42.654-42.654-19.134-42.654-42.654-42.654zm0 70.309c-15.249 0-27.654-12.406-27.654-27.654s12.405-27.654 27.654-27.654 27.654 12.406 27.654 27.654-12.405 27.654-27.654 27.654z"/><path d="m186.874 367.782c0-23.52-19.135-42.654-42.654-42.654s-42.654 19.135-42.654 42.654 19.135 42.654 42.654 42.654 42.654-19.134 42.654-42.654zm-70.309 0c0-15.249 12.405-27.654 27.654-27.654s27.654 12.406 27.654 27.654-12.405 27.654-27.654 27.654-27.654-12.405-27.654-27.654z"/><path d="m495.799 0h-207.773c-35.545 0-64.463 28.918-64.463 64.463v157.896c0 .664-.54 1.204-1.204 1.204h-156.279c-.664 0-1.204-.54-1.204-1.204v-60.64c0-4.142-3.357-7.5-7.5-7.5s-7.5 3.358-7.5 7.5v60.64c0 8.935 7.27 16.204 16.204 16.204h156.279c8.935 0 16.204-7.269 16.204-16.204v-157.896c0-27.274 22.189-49.463 49.463-49.463h207.772c.663 0 1.203.54 1.203 1.204v32.468c0 .664-.54 1.204-1.203 1.204h-206.155c-8.935 0-16.204 7.269-16.204 16.204v156.28c0 8.935 7.27 16.204 16.204 16.204h157.896c27.273 0 49.463 22.189 49.463 49.463v207.771c0 .664-.54 1.204-1.203 1.204h-32.469c-.663 0-1.203-.54-1.203-1.204v-206.155c0-8.935-7.27-16.204-16.204-16.204h-60.641c-4.143 0-7.5 3.358-7.5 7.5s3.357 7.5 7.5 7.5h60.641c.664 0 1.204.54 1.204 1.204v206.155c0 8.935 7.269 16.204 16.203 16.204h32.469c8.935 0 16.203-7.269 16.203-16.204v-207.772c0-35.545-28.918-64.463-64.463-64.463h-157.896c-.664 0-1.204-.54-1.204-1.204v-156.279c0-.664.54-1.204 1.204-1.204h206.156c8.935 0 16.203-7.269 16.203-16.204v-32.468c0-8.935-7.269-16.204-16.203-16.204z"/><path d="m16.204 512.002h207.771c35.545 0 64.463-28.918 64.463-64.463v-157.896c0-.664.54-1.204 1.204-1.204h60.64c4.143 0 7.5-3.358 7.5-7.5s-3.357-7.5-7.5-7.5h-60.64c-8.935 0-16.204 7.269-16.204 16.204v157.896c0 27.274-22.188 49.463-49.463 49.463h-207.771c-.664 0-1.204-.54-1.204-1.204v-32.468c0-.664.54-1.204 1.204-1.204h206.155c8.935 0 16.204-7.269 16.204-16.204v-156.279c0-8.935-7.27-16.204-16.204-16.204h-157.896c-27.275 0-49.463-22.189-49.463-49.463v-207.772c0-.664.54-1.204 1.204-1.204h32.468c.664 0 1.204.54 1.204 1.204v110.516c0 4.142 3.357 7.5 7.5 7.5s7.5-3.358 7.5-7.5v-110.516c0-8.935-7.27-16.204-16.204-16.204h-32.468c-8.934 0-16.204 7.269-16.204 16.204v207.772c0 35.545 28.918 64.463 64.463 64.463h157.896c.664 0 1.204.54 1.204 1.204v156.279c0 .664-.54 1.204-1.204 1.204h-206.155c-8.934 0-16.204 7.269-16.204 16.204v32.468c0 8.935 7.27 16.204 16.204 16.204z"/></g></g></svg>