<svg id="Capa_1" enable-background="new 0 0 512.037 512.037" height="512" viewBox="0 0 512.037 512.037" width="512" xmlns="http://www.w3.org/2000/svg"><g><g><path d="m503.777 348.006c-6.521-49.81-49.652-91.797-102.134-84.923-22.551 2.952-42.602 14.509-56.46 32.543-23.926 31.134-18.061 75.928 13.072 99.854 20.27 15.576 47.384 16.176 67.978 3.591 9.221-5.635 10.274-18.654 1.803-25.364-5.747-4.552-12.451-4.464-17.724-1.17-10.018 6.26-23.3 6.019-33.203-1.591-17.606-13.531-20.922-38.862-7.393-56.468 8.822-11.48 21.587-18.838 35.943-20.717 34.993-4.578 63.283 25.191 67.487 58.633 2.31 18.375-6.658 44.557-19.059 58.312-14.865 16.488-34.897 27.038-57.147 29.951-81.318 10.644-142.971-85.967-104.384-166.234 4.703-9.784 11.259-18.531 18.908-26.233 22.534-22.693 38.109-52.641 42.62-86.718 9.02-68.126-38.81-130.56-106.942-139.58-56.193-7.445-107.697 32.014-115.137 88.215-6.162 46.543 26.69 89.421 73.233 95.583 38.928 5.152 74.787-22.322 79.94-61.248 3.463-26.152-10.417-50.567-32.779-61.677-9.674-4.806-21.135 1.977-21.112 12.779.014 6.625 3.644 12.615 9.328 16.024 2.811 1.686 5.336 3.854 7.472 6.445 5.421 6.575 7.617 18.825 5.507 27.082-4.974 19.469-23.887 32.622-44.297 29.923-29.63-3.923-50.544-31.219-46.621-60.849 5.196-39.249 41.156-66.794 80.403-61.603 51.174 6.775 87.105 53.668 80.33 104.846-9.596 72.483-81.316 117.543-142.457 101.395-30.917-8.166-64.637-6.677-96.401 6.453-63.506 26.251-93.661 98.89-67.406 162.404 21.606 52.268 81.702 77.206 133.965 55.604 43.388-17.935 64.096-67.826 46.161-111.214-14.999-36.288-56.724-53.606-93.012-38.606-23.923 9.889-38.049 33.403-37.096 57.828.419 10.741 11.443 17.767 21.377 13.66 6.055-2.503 9.742-8.542 9.539-15.091-.136-4.394.736-8.806 2.616-12.951 3.074-6.776 11.713-13.883 18.817-16.095 19.652-6.122 41.152 3.69 49.164 23.074 11.417 27.621-1.765 59.382-29.387 70.8-36.497 15.086-78.465-2.333-93.552-38.83-19.719-47.706 2.924-102.27 50.634-121.991 53.585-22.15 114.827-2.732 146.336 44.406 5.745 8.595 9.772 18.191 12.476 28.169 17.245 63.63 75.911 114.055 145.771 104.908 60.162-7.874 111.131-59.876 102.823-123.329z" fill="#60b9fe"/><g fill="#1ca8ff"><path d="m345.183 295.626c-23.926 31.134-18.061 75.928 13.072 99.854 20.27 15.576 47.384 16.176 67.978 3.591 9.221-5.635 10.274-18.654 1.803-25.364-5.747-4.552-12.451-4.464-17.724-1.17-10.018 6.26-23.3 6.019-33.203-1.591-17.606-13.531-20.922-38.862-7.393-56.468 8.823-11.48 21.587-18.838 35.943-20.717 8.64-1.13 16.869-.16 24.43 2.436 9.319-8.038 20.331-14.162 32.434-17.762-17.038-12.098-38.075-18.34-60.881-15.353-22.55 2.954-42.601 14.511-56.459 32.544z"/><path d="m205.239 205.692c38.927 5.152 74.787-22.322 79.94-61.248 3.463-26.152-10.417-50.567-32.779-61.677-9.674-4.806-21.135 1.977-21.112 12.779.014 6.625 3.644 12.615 9.328 16.024 2.811 1.686 5.336 3.854 7.472 6.445 5.421 6.575 7.616 18.825 5.507 27.082-4.975 19.469-23.887 32.622-44.297 29.923-29.63-3.923-50.544-31.219-46.621-60.849 4.394-33.187 30.783-58.001 62.555-61.739 6.72-11.882 16.114-22.044 27.363-29.686-1.804-.319-3.62-.608-5.454-.851-56.193-7.445-107.698 32.014-115.137 88.215-6.16 46.541 26.692 89.42 73.235 95.582z"/><path d="m104.259 333.449c-23.923 9.889-38.049 33.403-37.096 57.828.419 10.741 11.443 17.767 21.377 13.66 6.055-2.503 9.742-8.542 9.539-15.091-.136-4.394.736-8.806 2.616-12.951 3.074-6.776 11.713-13.883 18.817-16.095 19.652-6.122 41.152 3.69 49.165 23.074 11.417 27.621-1.765 59.382-29.386 70.8-36.497 15.086-78.465-2.333-93.552-38.83-19.719-47.706 2.924-102.27 50.634-121.991.453-.187.908-.364 1.362-.545 8.274-16.868 21.763-30.702 38.37-39.415-17.26.704-34.682 4.393-51.552 11.366-63.508 26.252-93.663 98.891-67.408 162.405 21.606 52.268 81.702 77.206 133.965 55.604 43.388-17.935 64.096-67.826 46.161-111.214-14.999-36.287-56.724-53.605-93.012-38.605z"/></g></g><g><path d="m316.658 253.476c24.598-24.771 40.053-56.149 44.693-90.741.551-4.105-2.331-7.88-6.437-8.431-4.102-.546-7.879 2.331-8.431 6.437-4.202 31.322-18.196 59.734-40.471 82.166-75.612 76.147-12.015 218.77 91.771 205.188 23.81-3.117 45.737-14.611 61.744-32.365 14.276-15.835 23.47-44.065 20.93-64.27-2.574-20.479-13.535-39.986-29.321-52.182-29.297-22.637-67.581-15.288-87.498 10.632-16.049 20.885-12.114 50.934 8.771 66.985 12.057 9.265 28.833 10.072 41.747 2.004 5.659-3.536 12.376 1.229 12.011 7.228-.165 2.717-1.613 5.103-3.975 6.545-18.463 11.282-42.374 10.02-59.497-3.138-27.854-21.407-33.101-61.483-11.695-89.338 26.513-34.499 77.699-41.87 113.882-10.259 16.935 14.795 28.354 36.315 31.329 59.043 8.007 61.159-42.932 107.149-94.718 114.686-4.099.597-6.938 4.403-6.342 8.502.596 4.096 4.399 6.938 8.502 6.342 64-9.314 116.13-65.029 107.431-131.477-3.442-26.299-16.686-51.228-36.333-68.393-42.636-37.248-103.784-29.044-135.646 12.416-26.444 34.412-19.963 83.924 14.45 110.371 22.011 16.915 52.738 18.538 76.459 4.043 6.506-3.976 10.665-10.867 11.125-18.435 1.104-18.188-18.97-30.832-34.933-20.858-23.621 14.759-50.343-21.532-30.674-47.128 15-19.519 43.893-25.315 66.433-7.901 12.696 9.809 21.521 25.578 23.609 42.183 1.991 15.837-5.88 39.812-17.188 52.354-13.617 15.103-32.279 24.882-52.551 27.536-89.633 11.736-144.678-113.779-79.177-179.745z"/><path d="m153.847 490.2c47.21-19.516 69.741-73.8 50.228-121.01-8.02-19.402-23.142-34.53-42.579-42.599-49.214-20.425-103.995 12.759-101.956 64.979.622 15.94 16.997 26.391 31.737 20.298 8.913-3.684 14.476-12.419 14.17-22.255-.411-13.251 11.428-20.175 16.167-21.652 16.017-4.991 33.587 3.259 40.003 18.779 9.843 23.812-1.506 51.16-25.32 61.004-32.696 13.516-70.241-2.067-83.755-34.764-8.772-21.222-8.764-44.572.026-65.75 34.761-83.752 171.15-67.767 195.249 21.161 15.304 56.462 61.259 102.273 118.723 110.274 4.09.569 7.892-2.292 8.463-6.394s-2.292-7.891-6.395-8.462c-49.348-6.872-92.071-46.793-106.313-99.341-27.836-102.702-183.358-119.899-223.581-22.988-10.325 24.878-10.338 52.306-.035 77.23 16.682 40.358 62.99 59.578 103.349 42.896 31.476-13.012 46.462-49.121 33.452-80.597-9.353-22.623-34.975-34.647-58.326-27.37-9.425 2.936-27.378 14.603-26.698 36.439.109 3.538-1.816 6.649-4.908 7.927-5.13 2.12-10.802-1.494-11.019-7.021-1.612-41.331 42.196-66.734 81.216-50.539 15.737 6.532 27.979 18.775 34.467 34.475 16.355 39.566-2.528 85.062-42.095 101.417-48.44 20.024-104.144-3.097-124.168-51.539-11.933-28.866-11.919-60.628.038-89.436 25.586-61.641 94.786-85.189 154.925-69.305 31.492 8.316 66.374 1.816 95.697-17.838 30.837-20.668 51.288-53.407 56.11-89.823 7.301-55.153-31.629-105.964-86.782-113.266-43.247-5.721-83.096 24.808-88.822 68.054-4.47 33.764 19.307 64.799 53.073 69.269 23.977 3.171 46.563-12.092 52.546-35.501 2.741-10.731 1.04-31.366-16.388-41.814-3.553-2.13-5.678-5.723-5.687-9.608-.011-5.21 5.578-8.38 10.275-6.046 20.106 9.99 31.632 31.681 28.68 53.976-4.61 34.824-36.685 59.404-71.52 54.797-42.471-5.623-72.405-44.691-66.781-87.164 6.899-52.125 54.575-88.67 106.717-81.765 51.409 6.806 92.634 47.316 100.251 98.514.608 4.097 4.419 6.925 8.521 6.315 4.098-.61 6.925-4.425 6.314-8.522-8.377-56.316-53.05-103.225-113.117-111.177-60.345-7.991-115.566 34.303-123.558 94.666-6.711 50.692 28.992 97.291 79.684 104.002 43.026 5.694 82.664-24.679 88.36-67.699 3.794-28.653-11.025-56.534-36.877-69.378-14.731-7.319-31.983 3.207-31.949 19.512.021 9.191 4.869 17.58 12.972 22.44 10.685 6.405 10.896 20.047 9.569 25.237-4.102 16.054-19.604 26.52-36.045 24.344-25.53-3.38-43.551-26.9-40.17-52.43 4.64-35.046 36.935-59.788 71.983-55.152 46.953 6.216 80.096 49.473 73.879 96.427-4.256 32.146-22.331 61.062-49.59 79.332-25.747 17.256-56.187 23.014-83.517 15.795-67.8-17.907-144.227 9.677-172.608 78.058-13.493 32.508-13.51 68.348-.047 100.917 23.187 56.094 87.681 82.851 143.762 59.671z"/></g></g></svg>