<svg id="Capa_1" enable-background="new 0 0 511.977 511.977" height="512" viewBox="0 0 511.977 511.977" width="512" xmlns="http://www.w3.org/2000/svg"><g><g><path d="m450.494 215.27c-33.583-18.577-74.868-15.491-106.394 6.396-33.912 23.544-65.788 30.458-84.62 32.361-5.946.601-11.896-.925-16.922-4.158-7.162-4.607-13.581-7.682-18.149-9.586-3.453-1.439-4.732-5.671-2.672-8.794 11.486-17.414 39.361-68.296 7.221-112.254-39.487-54.007-105.694-22.648-132.407-6.388-13.675 8.324-23.495 6.806-29.823 3.342-5.402-2.957-12.104.304-13.029 6.393-2.294 15.089-.164 38.231 28.528 52.209 45.296 22.067 97.561-45.296 123.888-3.097 14.609 23.417-2.851 50.559-21.288 70.082-8.424 8.92-3.304 23.587 8.823 25.455 87.681 13.509 74.633 140.623-7.667 140.623-73.583 0-112.931-72.356-126.119-102.465-2.532-5.781-10.231-6.918-14.326-2.117l-23.072 27.048c-18.348 21.512-19.834 52.644-3.757 75.902 14.925 21.591 38.704 47.099 75.518 67.253 79.559 43.554 203.834-15.68 203.834-114.402 0-28.525-6.741-50.695-16.326-67.805-2.554-4.56.261-10.305 5.455-10.894 56.727-6.436 89.11-52.654 128.758-40.349 50.523 15.68 54.007 103.949 11.614 134.147-32.352 23.045-73.497 5.167-91.173-4.595-3.908-2.158-8.613 1.048-8.072 5.479 1.459 11.96 5.316 21.985 10.522 30.365 21.306 34.297 67.1 43.162 100.894 21.067 29.722-19.433 64.872-56.303 64.872-122.004.001-50.065-28.538-75.068-54.111-89.214z" fill="#ff9568"/><path d="m449.616 88.495c-8.444-14.385-27.789-17.624-40.524-6.852-27.151 22.967-74.77 51.791-124.016 27.52-4.819-2.375-9.284 3.866-5.504 7.684 23.361 23.598 72.672 51.753 158.772 9.298 13.977-6.89 19.16-24.211 11.272-37.65z" fill="#ff9568"/><path d="m449.616 88.495c-2.531-4.313-6.047-7.615-10.066-9.847 2.058 11.415-3.488 23.383-14.538 28.831-71.972 35.488-118.233 21.637-145.123 2.353-1.894 1.671-2.549 4.76-.316 7.015 23.361 23.598 72.672 51.753 158.772 9.298 13.976-6.89 19.159-24.211 11.271-37.65z" fill="#ff7c42"/><circle cx="330.582" cy="50.709" fill="#ff9568" r="26.713"/><g fill="#ff7c42"><path d="m330.582 50.709c0-9.886 5.374-18.511 13.357-23.131-3.93-2.274-8.489-3.583-13.357-3.583-14.753 0-26.713 11.96-26.713 26.713s11.96 26.713 26.713 26.713c4.867 0 9.427-1.308 13.357-3.583-7.982-4.618-13.357-13.243-13.357-23.129z"/><path d="m211.538 251.222c-5.166-2.395-7.172-8.691-4.341-13.631 9.779-17.066 26.681-54.122 10.731-84.886-21.493-41.455-70-18-108.333-9.667-28.947 6.293-47.246-13.835-54.474-24.072-.706 1.041-1.215 2.252-1.422 3.615-2.294 15.088-.164 38.231 28.528 52.209 45.296 22.067 97.561-45.296 123.887-3.097 14.609 23.417-2.851 50.559-21.288 70.082-8.424 8.92-3.304 23.587 8.823 25.455 87.681 13.509 74.633 140.623-7.667 140.623-73.583 0-112.931-72.355-126.119-102.465-2.532-5.781-10.231-6.918-14.326-2.117l-23.071 27.049c-.356.418-.695.846-1.039 1.271 24.451 57.107 87.523 105.566 119.167 116.114 38 12.667 124.751-7.981 135.333-90.667 8.277-64.661-42.053-95.46-64.389-105.816z"/><path d="m479.761 285.053c-29.5-85.651-104.5-64.599-136-44.849-20.595 12.913-46.677 21.266-62.266 25.502-6.674 1.813-9.707 9.546-6.058 15.42l6.299 10.141c-2.554-4.56.261-10.305 5.455-10.894 56.727-6.436 89.11-52.654 128.758-40.349 50.523 15.679 54.007 103.949 11.615 134.147-32.352 23.045-73.497 5.167-91.173-4.595-2.68-1.48-5.734-.437-7.215 1.794 7.31 10.333 18.73 22.015 36.562 32.834 46.975 28.501 143.523-33.499 114.023-119.151z"/></g></g><g><path d="m364.666 50.709c0-18.865-15.348-34.213-34.213-34.213s-34.213 15.347-34.213 34.213 15.349 34.213 34.214 34.213 34.212-15.348 34.212-34.213zm-53.426 0c0-10.594 8.619-19.213 19.214-19.213 10.594 0 19.213 8.619 19.213 19.213s-8.619 19.213-19.213 19.213c-10.595 0-19.214-8.619-19.214-19.213z"/><path d="m434.9 119.42c-20.081 9.901-39.311 16.406-57.153 19.331-4.087.67-6.857 4.527-6.188 8.615.671 4.087 4.518 6.854 8.615 6.188 19.305-3.166 39.949-10.124 61.358-20.681 17.858-8.804 24.508-30.992 14.422-48.174-10.797-18.398-35.558-22.551-51.835-8.781-28.495 24.103-71.725 48.269-115.856 26.519-12.389-6.109-23.867 9.873-14.149 19.688 12.96 13.091 35.467 29.411 69.093 32.809.257.026.511.039.763.039 3.803 0 7.063-2.882 7.453-6.747.417-4.121-2.587-7.799-6.708-8.216-20.659-2.088-36.472-9.78-47.932-18.12 19.299 5.83 39.68 5.288 60.798-1.645 18.829-6.181 37.746-17.242 56.227-32.875 9.184-7.771 23.129-5.44 29.212 4.922 5.68 9.68 1.98 22.146-8.12 27.128z"/><path d="m395.916 195.809c-20.078 1.289-39.519 8.1-56.222 19.696-31.857 22.117-61.685 29.098-81.097 31.06-4.147.418-8.449-.648-12.112-3.004-6.914-4.447-13.165-7.527-17.62-9.475 5.984-9.327 15.626-26.653 20.045-47.193 5.834-27.122 1.114-51.375-14.027-72.085-18.559-25.382-45.524-36.639-77.983-32.559-27.015 3.396-51.93 16.615-64.377 24.191-8.832 5.376-16.344 6.443-22.322 3.17-9.964-5.456-22.34.626-24.046 11.844-2.335 15.358-1.197 43.585 32.657 60.079 48.249 23.502 99.386-40.207 120.81-5.87 12.229 19.602-4.331 43.971-20.376 60.962-12.568 13.306-4.932 35.233 13.132 38.018 40.101 6.178 55.804 38.269 53.578 67.331-2.153 28.118-21.88 58.38-60.103 58.38-68.897 0-106.347-68.517-119.249-97.974-4.754-10.859-19.222-12.982-26.901-3.976l-23.071 27.049c-20.488 24.021-22.225 58.988-4.221 85.034 19.79 28.629 46.063 52.035 78.087 69.566 78.572 43.015 197.203-8.248 213.132-100.115.708-4.081-2.027-7.963-6.108-8.671-4.075-.705-7.963 2.027-8.671 6.108-14.335 82.666-122.424 127.144-191.149 89.52-29.957-16.4-54.501-38.249-72.95-64.938-14.143-20.459-12.788-47.917 3.293-66.771l23.072-27.049c.504-.6 1.435-.459 1.748.259 49.628 113.301 145.478 128.316 186.72 84.501 12.296-13.063 19.87-30.742 21.328-49.78 2.895-37.781-18.908-76.007-66.249-83.301-6.171-.951-8.788-8.366-4.512-12.894 35.64-37.741 31.743-63.901 22.197-79.201-30.454-48.814-85.877 20.342-126.966.324-19.237-9.372-27.446-24.29-24.397-44.338.141-.937 1.168-1.404 2.013-.942 7.577 4.148 20.205 6.906 37.324-3.514 24.809-15.101 86.4-44.903 122.452 4.408 28.932 39.569 4.444 85.701-7.427 103.698-4.648 7.048-1.748 16.596 6.048 19.846 3.925 1.636 10.056 4.52 16.977 8.972 6.507 4.184 14.222 6.071 21.734 5.312 21.173-2.139 53.652-9.716 88.144-33.662 29.449-20.445 68.107-22.798 98.486-5.993 33.807 18.701 50.241 45.736 50.241 82.651 0 62.428-33.431 97.39-61.477 115.726-14.896 9.741-33.337 13.138-50.588 9.317-25.061-5.55-44.013-25.066-48.695-51.471 12.148 6.28 32.716 14.83 54.652 14.828 89.19-.006 95.784-138.729 27.173-160.023-24.474-7.595-45.994 4.072-68.78 16.424-18.908 10.249-38.461 20.847-63.047 23.636-10.497 1.192-16.331 12.766-11.151 22.012 8.082 14.426 13.031 31.05 14.712 49.408.378 4.125 4.021 7.161 8.152 6.785 4.125-.377 7.163-4.027 6.785-8.152-1.869-20.419-7.419-39.008-16.505-55.183 57.735-6.693 90.121-51.55 125.389-40.604 44.441 13.792 46.931 94.202 9.485 120.876-29.187 20.791-67.902 3.393-83.195-5.051-9.263-5.118-20.424 2.463-19.143 12.953 4.232 34.7 28.371 61 60.925 68.208 21.171 4.69 43.782.53 62.04-11.407 31.144-20.362 68.268-59.146 68.268-128.281 0-24.133-6.355-45.152-18.89-62.474-18.184-25.126-54.529-48.933-97.172-46.201z"/></g></g></svg>