<svg id="Capa_1" enable-background="new 0 0 512.002 512.002" height="512" viewBox="0 0 512.002 512.002" width="512" xmlns="http://www.w3.org/2000/svg"><g><g><path d="m455.099 212.524h-22.832c-21.339 0-40.609 8.825-54.375 23.021l-.896 3.485-9.042 10.25-5.063-2v-3.014-155.276c0-19.955-16.331-36.665-36.282-36.283-7.407.142-14.256 2.553-19.893 6.559l-1.263 3.807-12.167 26-1.57-.784v-19.3-25.199c0-19.955-16.331-36.666-36.282-36.284-19.334.37-34.893 16.158-34.893 35.581v20.735 24.466l-3.755.118-9.164-20.75-2.081-8.39c-5.636-4.006-12.485-6.417-19.892-6.559-19.951-.382-36.282 16.328-36.282 36.283v155.277l-.077 1.497-.67 2.475-2.75 2.667-10.333-11.417-1.169-3.943c-13.767-14.197-33.037-23.022-54.375-23.022h-22.832c-5.199 0-7.382 6.566-3.268 9.745 13.609 10.513 30.698 30.542 30.698 64.843v72.088c0 80.248 65.054 145.302 145.302 145.302h52.473c80.249 0 145.302-65.054 145.302-145.302v-72.088c0-34.301 17.09-54.33 30.698-64.843 4.115-3.179 1.932-9.745-3.267-9.745z" fill="#ffc365"/><g fill="#ffb640"><path d="m328.287 209.906v-115c0-18.949 13.208-28.081 23.304-32.299-6.52-6.256-15.323-10.085-24.982-9.9-7.407.142-14.256 2.553-19.893 6.559l-1.263 3.807-6.236 13.327v151.172h11.404c9.757 0 17.666-7.909 17.666-17.666z"/><path d="m113.591 359.2v-72.088c0-34.301-17.09-54.331-30.699-64.844-3.742-2.891-2.264-8.569 1.944-9.574-1.603-.101-3.215-.17-4.844-.17h-22.831c-5.199 0-7.382 6.566-3.268 9.745 13.609 10.513 30.698 30.542 30.698 64.843v72.088c0 80.248 65.054 145.302 145.302 145.302h29c-80.248 0-145.302-65.054-145.302-145.302z"/><path d="m141.868 276.134h4.634c17.599 0 31.866-14.267 31.866-31.867v-143.028-12.229c0-14.594 8.616-27.471 21.134-33.181-4.244-1.908-8.919-3.027-13.852-3.122-19.951-.382-36.282 16.328-36.282 36.283v155.277l-.077 1.497-.67 2.475-2.75 2.667-4.002-4.422v29.65z"/></g><path d="m340.368 340.065c-18.267-36.725-44.114-61.391-73.224-66.407-34.734 12.142-59.654 45.188-59.654 84.065s24.92 71.923 59.654 84.065c29.111-5.016 54.957-29.682 73.224-66.407.558-1.123 1.045-2.315 1.479-3.546v-28.224c-.434-1.231-.92-2.423-1.479-3.546z" fill="#ffe559"/><path d="m208.954 357.724c0-39.328 26.102-72.555 61.925-83.316-4.827-1.121-9.749-1.712-14.749-1.712-33.575 0-63.697 26.072-84.239 67.369-.558 1.122-1.044 2.315-1.479 3.546v28.224c.434 1.231.921 2.424 1.479 3.546 20.541 41.297 50.664 67.369 84.239 67.369 5 0 9.922-.591 14.749-1.712-35.823-10.76-61.925-43.986-61.925-83.314z" fill="#ffd500"/><path d="m345.107 347.16c-16.331-18.595-38.396-32.026-63.433-37.534l-3.053 2.363h-45.5l-2.535-2.363c-3.267.719-6.479 1.579-9.639 2.561-7.877 13.352-12.411 28.912-12.411 45.536 0 16.63 4.536 32.193 12.418 45.548 11.113 3.454 22.926 5.317 35.176 5.317 35.464 0 67.28-15.597 88.977-40.302 5.314-6.049 5.314-15.075 0-21.126z" fill="#dbedff"/><path d="m208.954 357.724c0-16.832 4.786-32.544 13.063-45.859-21.497 6.46-40.425 18.854-54.865 35.295-5.314 6.051-5.314 15.077 0 21.127 14.442 16.444 33.37 28.844 54.87 35.304-8.28-13.317-13.068-29.032-13.068-45.867z" fill="#b5dcff"/><path d="m281.674 309.626c-8.227-1.81-16.773-2.767-25.544-2.767-.853 0-1.702.017-2.551.035-4.978 6.831-7.929 15.231-7.929 24.33 0 14.199 7.165 26.704 18.059 34.162 15.17-3.447 26.497-17.006 26.497-33.219-.001-8.645-3.227-16.533-8.532-22.541z" fill="#60b9fe"/><path d="m246.304 331.406c0-9.25 3.153-17.755 8.427-24.528-8.28.096-16.357 1.035-24.146 2.748-5.306 6.008-8.531 13.896-8.531 22.541 0 18.819 15.256 34.075 34.075 34.075 2.998 0 5.905-.391 8.675-1.118-11.119-7.102-18.5-19.544-18.5-33.718z" fill="#1ca8ff"/><path d="m255.435 7.507c-19.334.37-34.893 16.158-34.893 35.581v20.735 24.466l-3.755.118-3.745-8.479v147.646h14.912c14.359 0 26-11.641 26-26v-158.335c0-18.792 13.055-26.616 21.646-29.734-5.777-3.9-12.718-6.141-20.165-5.998z" fill="#ffb640"/></g><g><path d="m271.499 433.108c-3.991 1.105-6.331 5.238-5.226 9.23 1.106 3.995 5.24 6.331 9.229 5.226 27.83-7.708 53.205-32.156 71.451-68.841.441-.887.853-1.823 1.247-2.821.815-.877 1.621-1.764 2.414-2.667 7.766-8.843 7.766-22.181 0-31.024h-.001c-.792-.902-1.597-1.789-2.412-2.665-.395-.998-.806-1.935-1.247-2.821-47.455-95.405-134.505-95.296-181.906-.001-.441.887-.853 1.825-1.248 2.824-.814.876-1.619 1.762-2.411 2.664-7.768 8.844-7.768 22.182-.001 31.025.792.902 1.597 1.789 2.412 2.665.394.997.805 1.934 1.247 2.821 18.247 36.686 43.623 61.135 71.451 68.842 3.992 1.106 8.124-1.235 9.229-5.226 1.105-3.992-1.234-8.125-5.226-9.23-15.642-4.332-30.565-15.271-43.601-31.664 35.739 19.07 80.764 19.975 118.199 0-13.033 16.39-27.959 27.331-43.6 31.663zm-98.84-69.77c-2.811-3.201-2.811-8.028.001-11.229 11.447-13.034 26.113-23.552 43.052-30.164-.842 3.317-1.287 6.746-1.287 10.222 0 22.925 18.65 41.575 41.575 41.575s41.575-18.65 41.575-41.575c0-3.476-.445-6.905-1.287-10.222 16.583 6.472 31.346 16.832 43.054 30.163 2.81 3.201 2.81 8.028 0 11.229-44.163 50.288-122.488 50.32-166.683.001zm109.917-31.171c0 14.654-11.922 26.575-26.575 26.575s-26.575-11.921-26.575-26.575c0-5.674 1.815-11.168 5.15-15.709 14.078-2.776 28.653-2.799 42.851 0 3.334 4.542 5.149 10.035 5.149 15.709zm32.52-18.166c-36.461-19.453-81.44-19.609-118.191 0 35.806-44.998 82.301-45.102 118.191 0z"/><path d="m229.764 512.002h52.473c84.256 0 152.803-68.546 152.803-152.802v-72.088c0-30.938 15.099-49.103 27.765-58.894 9.775-7.557 4.495-23.194-7.862-23.194h-22.805c-23.984 0-46.34 10.314-61.875 27.553v-55.614c0-4.142-3.357-7.5-7.5-7.5s-7.5 3.358-7.5 7.5v132.259c0 4.142 3.357 7.5 7.5 7.5s7.5-3.358 7.5-7.5v-49.753c11.2-24.009 35.316-39.444 61.875-39.444h17.04c-14.193 12.492-29.138 33.6-29.138 67.088v72.087c0 75.984-61.818 137.802-137.803 137.802h-52.473c-75.984 0-137.802-61.818-137.802-137.802v-72.088c0-33.488-14.945-54.596-29.139-67.088h17.04c26.559 0 50.675 15.435 61.875 39.444v49.753c0 4.142 3.357 7.5 7.5 7.5s7.5-3.358 7.5-7.5c0-3.898 0-219.449 0-220.934 0-15.488 12.6-28.088 28.087-28.088s28.088 12.6 28.088 28.088v137.131c0 4.142 3.357 7.5 7.5 7.5s7.5-3.358 7.5-7.5c0-21.606 0-176.689 0-182.332 0-15.487 12.6-28.087 28.087-28.087s28.088 12.6 28.088 28.087v182.332c0 4.142 3.357 7.5 7.5 7.5s7.5-3.358 7.5-7.5v-137.13c0-15.488 12.6-28.088 28.087-28.088s28.087 12.6 28.087 28.088v53.674c0 4.142 3.357 7.5 7.5 7.5s7.5-3.358 7.5-7.5v-53.674c0-23.759-19.329-43.088-43.087-43.088-10.721 0-20.539 3.936-28.087 10.438v-12.551c.001-23.758-19.328-43.087-43.087-43.087-23.758 0-43.087 19.329-43.087 43.087v12.551c-7.548-6.502-17.367-10.438-28.088-10.438-23.758 0-43.087 19.329-43.087 43.088v144.289c-15.535-17.239-37.891-27.553-61.875-27.553h-22.804c-12.354 0-17.64 15.636-7.863 23.194 12.667 9.791 27.766 27.956 27.766 58.894v72.088c0 84.256 68.547 152.802 152.801 152.802z"/></g></g></svg>