<svg id="Capa_1" enable-background="new 0 0 512 512" height="512" viewBox="0 0 512 512" width="512" xmlns="http://www.w3.org/2000/svg"><g><g><path d="m439.382 504.5h-366.764c-16.569 0-30-13.431-30-30v-394c0-16.569 13.431-30 30-30h366.764c16.569 0 30 13.431 30 30v394c0 16.569-13.432 30-30 30z" fill="#ffe179"/><path d="m439.382 50.5h-30c16.569 0 30 13.431 30 30v394c0 16.569-13.431 30-30 30h30c16.569 0 30-13.431 30-30v-394c0-16.569-13.432-30-30-30z" fill="#fbd268"/><path d="m72.618 464.5v-327c0-5.523 4.477-10 10-10h346.764c5.523 0 10 4.477 10 10v327c0 5.523-4.477 10-10 10h-346.764c-5.523 0-10-4.477-10-10z" fill="#fff"/><circle cx="127.118" cy="182" fill="#ffe179" r="24.5"/><circle cx="384.882" cy="182" fill="#ffe179" r="24.5"/><path d="m384.882 157.5c-4.464 0-8.646 1.2-12.25 3.286 7.321 4.237 12.25 12.148 12.25 21.215s-4.929 16.978-12.25 21.215c3.604 2.086 7.786 3.286 12.25 3.286 13.531 0 24.5-10.969 24.5-24.5s-10.969-24.502-24.5-24.502z" fill="#fbd268"/><circle cx="256" cy="182" fill="#ffe179" r="24.5"/><circle cx="127.118" cy="301" fill="#ffe179" r="24.5"/><circle cx="384.882" cy="301" fill="#ffe179" r="24.5"/><circle cx="127.118" cy="420" fill="#ffe179" r="24.5"/><circle cx="384.882" cy="420" fill="#ffe179" r="24.5"/><circle cx="256" cy="420" fill="#ffe179" r="24.5"/><g><circle cx="256" cy="301" fill="#f58a97" r="65.887"/><path d="m256 235.113c-5.163 0-10.179.613-15 1.736 29.158 6.792 50.887 32.926 50.887 64.152s-21.73 57.359-50.887 64.152c4.821 1.123 9.837 1.736 15 1.736 36.389 0 65.887-29.499 65.887-65.887 0-36.391-29.498-65.889-65.887-65.889z" fill="#f07281"/></g><g fill="#fbd268"><path d="m256 157.5c-4.464 0-8.646 1.2-12.25 3.286 7.321 4.237 12.25 12.147 12.25 21.214s-4.929 16.978-12.25 21.215c3.604 2.086 7.786 3.286 12.25 3.286 13.531 0 24.5-10.969 24.5-24.5s-10.969-24.501-24.5-24.501z"/><path d="m127.118 157.5c-4.464 0-8.646 1.2-12.25 3.286 7.321 4.237 12.25 12.148 12.25 21.215s-4.929 16.978-12.25 21.215c3.604 2.086 7.786 3.286 12.25 3.286 13.531 0 24.5-10.969 24.5-24.5s-10.969-24.502-24.5-24.502z"/><path d="m384.882 276.5c-4.464 0-8.646 1.2-12.25 3.286 7.321 4.237 12.25 12.148 12.25 21.215s-4.929 16.978-12.25 21.215c3.604 2.086 7.786 3.286 12.25 3.286 13.531 0 24.5-10.969 24.5-24.5s-10.969-24.502-24.5-24.502z"/><path d="m384.882 395.499c-4.464 0-8.646 1.2-12.25 3.286 7.321 4.237 12.25 12.148 12.25 21.215s-4.929 16.978-12.25 21.215c3.604 2.086 7.786 3.286 12.25 3.286 13.531 0 24.5-10.969 24.5-24.5s-10.969-24.502-24.5-24.502z"/><path d="m256 395.499c-4.464 0-8.646 1.2-12.25 3.286 7.321 4.237 12.25 12.148 12.25 21.215s-4.929 16.978-12.25 21.215c3.604 2.086 7.786 3.286 12.25 3.286 13.531 0 24.5-10.969 24.5-24.5s-10.969-24.502-24.5-24.502z"/><path d="m127.118 395.499c-4.464 0-8.646 1.2-12.25 3.286 7.321 4.237 12.25 12.148 12.25 21.215s-4.929 16.978-12.25 21.215c3.604 2.086 7.786 3.286 12.25 3.286 13.531 0 24.5-10.969 24.5-24.5s-10.969-24.502-24.5-24.502z"/><path d="m127.118 276.5c-4.464 0-8.646 1.2-12.25 3.286 7.321 4.237 12.25 12.148 12.25 21.215s-4.929 16.978-12.25 21.215c3.604 2.086 7.786 3.286 12.25 3.286 13.531 0 24.5-10.969 24.5-24.5s-10.969-24.502-24.5-24.502z"/></g></g><path d="m384.882 150c-17.645 0-32 14.355-32 32s14.355 32 32 32 32-14.355 32-32-14.356-32-32-32zm0 49.001c-9.374 0-17-7.626-17-17s7.626-17 17-17 17 7.626 17 17-7.626 17-17 17zm-195.823-102.501h133.883c4.143 0 7.5-3.358 7.5-7.5s-3.357-7.5-7.5-7.5h-133.883c-4.143 0-7.5 3.358-7.5 7.5s3.357 7.5 7.5 7.5zm195.823 172.5c-17.645 0-32 14.355-32 32s14.355 32 32 32 32-14.355 32-32-14.356-32-32-32zm0 49c-9.374 0-17-7.626-17-17s7.626-17 17-17 17 7.626 17 17-7.626 17-17 17zm54.5 72.475c4.143 0 7.5-3.358 7.5-7.5v-245.475c0-9.649-7.851-17.5-17.5-17.5h-346.764c-9.649 0-17.5 7.851-17.5 17.5v327c0 9.649 7.851 17.5 17.5 17.5h346.764c9.649 0 17.5-7.851 17.5-17.5v-46.525c0-4.142-3.357-7.5-7.5-7.5s-7.5 3.358-7.5 7.5v46.525c0 1.378-1.121 2.5-2.5 2.5h-346.764c-1.379 0-2.5-1.122-2.5-2.5v-327c0-1.378 1.121-2.5 2.5-2.5h346.764c1.379 0 2.5 1.122 2.5 2.5v245.475c0 4.142 3.357 7.5 7.5 7.5zm-54.5-2.476c-17.645 0-32 14.355-32 32s14.355 32 32 32 32-14.355 32-32-14.356-32-32-32zm0 49.001c-9.374 0-17-7.626-17-17s7.626-17 17-17 17 7.626 17 17-7.626 17-17 17zm-100.25-157.132c4.143 0 7.5-3.358 7.5-7.5s-3.357-7.5-7.5-7.5h-25.479c-5.874 0-10.653 4.779-10.653 10.654v17.978h-13.632v-21.132c0-4.142-3.357-7.5-7.5-7.5s-7.5 3.358-7.5 7.5v25.478c0 5.875 4.779 10.654 10.653 10.654h17.979v13.632h-21.132c-4.143 0-7.5 3.358-7.5 7.5s3.357 7.5 7.5 7.5h25.479c5.874 0 10.653-4.779 10.653-10.654v-17.978h13.632v21.132c0 4.142 3.357 7.5 7.5 7.5s7.5-3.358 7.5-7.5v-25.478c0-5.875-4.779-10.654-10.653-10.654h-17.979v-13.632zm44.756 21.132c0-40.466-32.922-73.387-73.388-73.387s-73.388 32.921-73.388 73.387 32.922 73.387 73.388 73.387 73.388-32.921 73.388-73.387zm-73.388 58.387c-32.195 0-58.388-26.192-58.388-58.387s26.192-58.387 58.388-58.387 58.388 26.192 58.388 58.387-26.193 58.387-58.388 58.387zm183.382-316.387h-25.648c-.68-9.673-2.664-18.666-5.763-25.87-6.413-14.904-15.265-17.13-19.971-17.13-15.365 0-24.131 20.586-25.729 43h-153.094c-4.143 0-7.5 3.358-7.5 7.5s3.357 7.5 7.5 7.5h153.089c.68 9.673 2.664 18.667 5.764 25.87 6.411 14.904 15.264 17.13 19.97 17.13 9.559 0 17.655-8.482 22.215-23.272 1.221-3.958-.999-8.156-4.957-9.376-3.957-1.221-8.157.999-9.377 4.958-2.985 9.682-6.821 12.69-7.881 12.69-2.506 0-9.208-9.598-10.699-28h62.081c12.406 0 22.5 10.093 22.5 22.5v394c0 12.407-10.094 22.5-22.5 22.5h-366.764c-12.406 0-22.5-10.093-22.5-22.5v-394c0-12.407 10.094-22.5 22.5-22.5h19.647c.68 9.673 2.664 18.667 5.764 25.87 6.412 14.904 15.265 17.13 19.971 17.13 9.559 0 17.655-8.482 22.215-23.272 1.221-3.958-.999-8.156-4.957-9.376-3.958-1.221-8.156.999-9.377 4.958-2.985 9.682-6.821 12.69-7.881 12.69-2.506 0-9.208-9.598-10.699-28h66.876c4.143 0 7.5-3.358 7.5-7.5s-3.357-7.5-7.5-7.5h-30.443c-.68-9.673-2.664-18.666-5.763-25.87-6.413-14.904-15.265-17.13-19.971-17.13-15.365 0-24.131 20.586-25.73 43h-19.652c-20.678 0-37.5 16.822-37.5 37.5v394c0 20.678 16.822 37.5 37.5 37.5h366.764c20.678 0 37.5-16.822 37.5-37.5v-394c0-20.678-16.822-37.5-37.5-37.5zm-62.081 0c1.491-18.402 8.193-28 10.699-28s9.207 9.598 10.698 28zm-259.301-28c2.506 0 9.207 9.598 10.698 28h-21.397c1.491-18.402 8.193-28 10.699-28zm9.118 372.999c-17.645 0-32 14.355-32 32s14.355 32 32 32 32-14.355 32-32-14.355-32-32-32zm0 49.001c-9.374 0-17-7.626-17-17s7.626-17 17-17 17 7.626 17 17-7.626 17-17 17zm0-287c-17.645 0-32 14.355-32 32s14.355 32 32 32 32-14.355 32-32-14.355-32-32-32zm0 49.001c-9.374 0-17-7.626-17-17s7.626-17 17-17 17 7.626 17 17-7.626 17-17 17zm96.882 220.999c0 17.645 14.355 32 32 32s32-14.355 32-32-14.355-32-32-32-32 14.354-32 32zm49 0c0 9.374-7.626 17-17 17s-17-7.626-17-17 7.626-17 17-17 17 7.625 17 17zm-145.882-151c-17.645 0-32 14.355-32 32s14.355 32 32 32 32-14.355 32-32-14.355-32-32-32zm0 49c-9.374 0-17-7.626-17-17s7.626-17 17-17 17 7.626 17 17-7.626 17-17 17zm160.882-136c0-17.645-14.355-32-32-32s-32 14.355-32 32 14.355 32 32 32 32-14.354 32-32zm-49 0c0-9.374 7.626-17 17-17s17 7.626 17 17-7.626 17-17 17-17-7.625-17-17z"/></g></svg>