<svg id="Capa_1" enable-background="new 0 0 512.083 512.083" height="512" viewBox="0 0 512.083 512.083" width="512" xmlns="http://www.w3.org/2000/svg"><g><g><g><path d="m122.346 17.987c-12.124 7.847-25.595 13.918-40.166 16.511-2.761 5.938-5.964 11.654-9.501 17.117-26.261 40.571-5.971 94.874 40.761 107.197l16.815 4.434h14.828l76.613-76.701 1.155-16.72-3.992-15.139c-11.095-42.075-59.985-60.343-96.513-36.699z" fill="#faa7b0"/></g><path d="m55.177 35.089c-11.654-1.573-21.526 8.3-19.953 19.953 3.393 25.14-4.606 47.863-17.102 67.169-23.644 36.528-5.376 85.418 36.699 96.513l15.139 3.992h15.721l62.035-62.258h-17.084l-16.452-4.338c-45.722-12.056-65.574-65.186-39.88-104.881 3.518-5.435 6.704-11.121 9.435-17.036-9.103 1.784-18.641 2.224-28.558.886z" fill="#f78b98"/><path d="m426.66 297.211-109.399 106.156c17.972 35.442 63.818 48.736 99.045 25.934 19.469-12.602 42.149-20.942 67.172-19.021 2.91-7.155 6.577-13.986 10.741-20.419 23.644-36.528 5.376-85.419-36.698-96.513l-15.139-3.992z" fill="#faa7b0"/><path d="m415.365 428.437c-34.576 22.381-79.736 8.871-96.63-26.501l-26.734 25.941-2.51 14.368 3.992 15.139c11.094 42.074 59.985 60.343 96.513 36.698 19.306-12.496 42.028-20.494 67.169-17.102 11.654 1.573 21.526-8.299 19.953-19.953-2.261-16.757.542-32.437 6.361-46.75-25.445-2.815-48.47 5.446-68.114 18.16z" fill="#f78b98"/><g><path d="m494.219 122.211c-7.847-12.124-13.918-25.595-16.511-40.166-5.938-2.761-11.654-5.964-17.117-9.501-40.571-26.261-94.874-5.971-107.197 40.761l-4.434 16.815v14.828l76.701 76.613 16.72 1.155 15.139-3.992c42.075-11.095 60.343-59.985 36.699-96.513z" fill="#f27182"/></g><path d="m477.117 55.042c1.573-11.654-8.3-21.526-19.953-19.953-25.14 3.393-47.863-4.606-67.169-17.102-36.528-23.644-85.418-5.376-96.513 36.699l-3.992 15.139v15.721l62.258 62.035v-17.084l4.338-16.452c12.056-45.722 65.186-65.575 104.881-39.88 5.435 3.518 11.121 6.704 17.036 9.435-1.784-9.103-2.224-18.641-.886-28.558z" fill="#ed5469"/><path d="m214.995 426.525-106.156-109.399c-35.442 17.972-48.736 63.818-25.934 99.045 12.602 19.469 20.942 42.149 19.021 67.172 7.155 2.91 13.986 6.577 20.419 10.741 36.528 23.644 85.419 5.376 96.513-36.698l3.992-15.139z" fill="#f27182"/><path d="m83.768 415.23c-22.381-34.576-8.871-79.736 26.501-96.63l-25.941-26.734-14.368-2.51-15.139 3.992c-42.074 11.094-60.343 59.985-36.698 96.513 12.496 19.306 20.494 42.028 17.102 67.169-1.573 11.654 8.299 21.526 19.953 19.953 16.757-2.261 32.437.542 46.75 6.361 2.816-25.445-5.445-48.47-18.16-68.114z" fill="#ed5469"/><path d="m389.986 122.22c-34.969-34.969-80.333-53.354-126.237-55.177-37.579 6.547-73.57 24.285-102.532 53.247-74.851 74.851-74.851 196.641 0 271.492 28.962 28.962 64.953 46.699 102.531 53.246 45.905-1.823 91.268-20.208 126.238-55.177 73.786-73.787 73.786-193.845 0-267.631z" fill="#f78b98"/><path d="m162.855 389.851c-73.786-73.786-73.786-193.845 0-267.631 31.746-31.746 72.059-49.82 113.565-54.249-54.965-5.865-112.025 12.209-154.065 54.249-73.786 73.786-73.786 193.845 0 267.631 42.04 42.04 99.1 60.114 154.065 54.249-41.507-4.429-81.819-22.503-113.565-54.249z" fill="#f27182"/><circle cx="256.17" cy="256.035" fill="#dbedff" r="152.378"/><path d="m155.36 256.035c0-75.367 54.719-137.944 126.594-150.195-8.382-1.429-16.994-2.183-25.783-2.183-84.156 0-152.378 68.222-152.378 152.378s68.222 152.378 152.378 152.378c8.789 0 17.402-.754 25.783-2.183-71.875-12.251-126.594-74.828-126.594-150.195z" fill="#b5dcff"/><path d="m330.668 171.295h-110.19c-5.657 0-10.243 4.586-10.243 10.243v148.995c0 5.657 4.586 10.243 10.243 10.243h110.19c5.657 0 10.243-4.586 10.243-10.243 0-2.866 0-145.704 0-148.995 0-5.657-4.586-10.243-10.243-10.243z" fill="#faa7b0"/><path d="m211.235 330.533v-148.995c0-5.657 4.586-10.243 10.243-10.243h-39.805c-5.657 0-10.243 4.586-10.243 10.243v148.995c0 5.657 4.586 10.243 10.243 10.243h39.805c-5.657 0-10.243-4.586-10.243-10.243z" fill="#f78b98"/><path d="m292.065 221.561h-39.344c-5.612 2.195-8.42 9.147-4.982 14.798l26.579 43.688 26.312-43.25c4.064-6.681-.745-15.236-8.565-15.236z" fill="#f27182"/><path d="m248.211 236.796c-4.064-6.681.745-15.236 8.564-15.236h-36.5c-7.82 0-12.629 8.555-8.564 15.236l35.895 59.001c3.906 6.419 13.224 6.419 17.129 0l9.685-15.92z" fill="#ed5469"/></g><g><path d="m291.936 214.061h-71.789c-13.675 0-22.084 14.944-14.972 26.633l35.895 59.002c6.834 11.232 23.123 11.211 29.943 0l35.895-59.001c7.108-11.684-1.289-26.634-14.972-26.634zm2.157 18.837-35.895 59.001c-.986 1.622-3.328 1.622-4.314 0l-35.895-59.001c-1.027-1.689.178-3.837 2.157-3.837h71.789c1.978 0 3.187 2.146 2.158 3.837z"/><path d="m500.386 118.135c-13.366-20.651-18.738-41.541-15.965-62.09 2.236-16.564-11.813-30.626-28.39-28.389-20.544 2.772-41.439-2.598-62.09-15.965-40.964-26.513-95.463-5.859-107.841 41.083l-2.254 8.55c-9.133-1.28-18.417-1.943-27.806-1.943s-18.672.663-27.805 1.943l-2.254-8.55c-12.391-46.993-66.917-67.569-107.84-41.083-20.651 13.367-41.546 18.737-62.09 15.965-16.556-2.234-30.627 11.811-28.39 28.389 2.773 20.548-2.598 41.438-15.965 62.09-26.513 40.961-5.859 95.463 41.083 107.84l8.549 2.254c-1.28 9.133-1.943 18.417-1.943 27.805 0 9.389.663 18.673 1.943 27.806l-8.549 2.254c-46.905 12.368-67.619 66.846-41.082 107.84 13.366 20.651 18.738 41.541 15.965 62.09-2.235 16.557 11.813 30.631 28.389 28.389 20.546-2.771 41.439 2.598 62.091 15.965 41.101 26.606 95.501 5.71 107.84-41.082l2.26-8.573c9.217 1.305 18.508 1.962 27.8 1.962s18.583-.657 27.8-1.962l2.26 8.573c12.354 46.853 66.792 67.652 107.84 41.083 20.652-13.367 41.543-18.737 62.091-15.965 16.561 2.234 30.627-11.811 28.39-28.389-2.773-20.55 2.599-41.44 15.965-62.091 26.513-40.961 5.859-95.463-41.083-107.84l-8.549-2.254c1.28-9.133 1.943-18.417 1.943-27.806s-.663-18.672-1.943-27.805l8.549-2.254c46.904-12.368 67.616-66.844 41.081-107.84zm-443.782 93.337c-37.015-9.761-53.305-52.759-32.315-85.186 15.368-23.743 21.505-48.05 18.238-72.247-.91-6.751 4.77-12.426 11.519-11.518 24.195 3.266 48.505-2.87 72.247-18.238 32.401-20.97 75.418-4.726 85.186 32.314l1.945 7.378c-75.33 16.506-133.346 75.977-149.443 149.442zm154.874 244.001c-9.762 37.02-52.764 53.3-85.186 32.314-22.132-14.324-46.46-21.718-72.247-18.238-6.735.916-12.431-4.762-11.518-11.518 3.266-24.198-2.871-48.506-18.238-72.248-20.975-32.405-4.722-75.419 32.314-85.185l7.377-1.945c16.311 74.44 74.86 132.974 149.454 149.397zm-137.092-199.438c0-100.881 81.49-181.655 181.655-181.655 100.391 0 181.655 81.012 181.655 181.655 0 88.054-62.85 163.423-149.646 178.826-.02.004-.039.01-.059.014-110.548 19.588-213.605-64.594-213.605-178.84zm381.093 44.564c37.023 9.763 53.299 52.766 32.315 85.186-15.367 23.741-21.504 48.049-18.238 72.247.91 6.747-4.768 12.429-11.519 11.518-24.198-3.264-48.504 2.871-72.247 18.238-32.411 20.977-75.421 4.716-85.186-32.314l-1.957-7.422c75.555-16.64 133.361-75.958 149.453-149.397zm-7.378-87.182c-16.326-74.511-75.111-133.155-149.441-149.442l1.945-7.378c9.763-37.024 52.767-53.298 85.187-32.315 23.742 15.367 48.05 21.505 72.246 18.238 6.742-.912 12.429 4.763 11.519 11.518-3.266 24.198 2.871 48.505 18.238 72.247 20.974 32.404 4.722 75.419-32.315 85.186z"/><path d="m415.919 256.035c0-81.317-60.843-149.596-141.525-158.823-4.122-.463-7.833 2.485-8.304 6.6s2.483 7.833 6.599 8.304c73.104 8.36 128.23 70.232 128.23 143.92 0 79.886-64.992 144.878-144.878 144.878s-144.878-64.992-144.878-144.878c0-73.688 55.127-135.56 128.23-143.92 4.115-.471 7.069-4.188 6.599-8.304s-4.172-7.065-8.304-6.6c-80.683 9.228-141.525 77.506-141.525 158.823 0 88.157 71.721 159.878 159.878 159.878s159.878-71.721 159.878-159.878z"/><path d="m340.782 246.035c4.143 0 7.5-3.358 7.5-7.5v-56.998c0-9.783-7.959-17.743-17.742-17.743h-148.996c-9.783 0-17.743 7.959-17.743 17.743v148.995c0 9.783 7.96 17.743 17.743 17.743h148.995c9.783 0 17.742-7.959 17.742-17.743v-56.998c0-4.142-3.357-7.5-7.5-7.5s-7.5 3.358-7.5 7.5v56.998c0 1.512-1.23 2.743-2.742 2.743h-148.995c-1.513 0-2.743-1.23-2.743-2.743v-148.994c0-1.512 1.23-2.743 2.743-2.743h148.995c1.512 0 2.742 1.23 2.742 2.743v56.998c.001 4.141 3.358 7.499 7.501 7.499z"/></g></g></svg>