<svg id="Capa_1" enable-background="new 0 0 512.002 512.002" height="512" viewBox="0 0 512.002 512.002" width="512" xmlns="http://www.w3.org/2000/svg"><g><g><g><path d="m7.502 226.512 161.386 28.841c4.298.761 10.229 7.158 10.229 7.158l60.892 68.378c1.881 2.112 3.838 4.155 5.867 6.126 9.439 9.164 20.358 16.669 32.295 22.197l135.809 1.217-118.985-91.852-104.543-67.262-190.45-29.439v50.128c0 2.002 1.481 3.696 3.465 3.964z" fill="#ffcebf"/><path d="m346.169 308.081-24.826-19.165-66.944-13.731c-4.77-.979-9.661-1.228-14.506-.74l-1.058.107c-14.188 1.429-28.183 4.136-41.831 8.046l38.226 42.925 18.333-6.914 63.112 6.08c12.584 1.212 24.235-5.671 29.494-16.608z" fill="#ffb09e"/><path d="m255.403 240.863 45.069 44.598c10.747 10.635 27.779 11.462 39.487 1.916 2.824-2.302 3.246-6.458.942-9.281l-57.407-70.356c-3.079-3.773-6.711-7.057-10.775-9.741-25.466-16.821-53.856-28.724-83.703-35.096l-181.514-38.749-.208-.046c-3.745-.826-7.292 2.025-7.292 5.859v48.458z" fill="#ffcebf"/><g><path d="m144.064 118.499-.013-.004c-10.666-3.013-21.755 3.194-24.763 13.861l-33.451 118.635c-3.006 10.66 3.196 21.739 13.854 24.75l.013.004c10.666 3.013 21.755-3.194 24.763-13.861l33.452-118.634c3.005-10.66-3.197-21.739-13.855-24.751z" fill="#fff8bf"/><path d="m114.703 260.745-.013-.004c-10.658-3.011-16.86-14.09-13.854-24.75l33.194-117.721c-6.875 1.614-12.69 6.809-14.742 14.087l-33.451 118.634c-3.006 10.66 3.196 21.739 13.854 24.75l.013.004c10.666 3.013 21.755-3.194 24.763-13.861l.258-.913c-3.203.751-6.632.731-10.022-.226z" fill="#fcea9d"/><path d="m105.44 107.587-.013-.004c-10.666-3.013-21.755 3.194-24.763 13.861l-33.451 118.635c-3.006 10.66 3.196 21.739 13.854 24.75l.013.004c10.666 3.013 21.755-3.194 24.763-13.861l33.452-118.634c3.005-10.661-3.197-21.74-13.855-24.751z" fill="#ffe179"/><path d="m76.08 249.832-.013-.004c-10.658-3.011-16.86-14.09-13.854-24.75l33.194-117.721c-6.874 1.614-12.69 6.809-14.742 14.087l-33.452 118.635c-3.006 10.66 3.196 21.739 13.854 24.75l.013.004c10.666 3.013 21.755-3.193 24.763-13.861l.258-.913c-3.203.75-6.632.731-10.021-.227z" fill="#fbd268"/></g></g><g><path d="m416.707 98.943c0 29.782-27.578 53.924-61.597 53.924s-61.597-24.143-61.597-53.924c0-26.134 47.431-78.063 59.051-90.392 1.32-1.401 3.772-1.401 5.092 0 11.62 12.329 59.051 64.259 59.051 90.392z" fill="#e19974"/><path d="m357.656 8.551c-1.32-1.401-3.772-1.401-5.092 0-2.634 2.795-7.11 7.628-12.454 13.73 18.233 20.819 46.597 56.452 46.597 76.663 0 25.251-19.829 46.441-46.597 52.306 4.802 1.052 9.825 1.618 15 1.618 34.019 0 61.597-24.143 61.597-53.924 0-26.134-47.431-78.064-59.051-90.393z" fill="#dc8758"/><g><path d="m291.684 155.578c-1.498-5.769-5.27-16.406-15.536-26.069-13.331-12.548-30.192-16.471-41.152-17.66-3.23-.35-4.031-4.119-1.139-5.422 10.844-4.883 28.816-10.58 50.059-7.521 32.074 4.619 58.743 27.349 67.824 57.805z" fill="#95d6a4"/><path d="m321.558 156.142 30.182.57c-9.081-30.455-35.75-53.185-67.824-57.805-9.886-1.424-19.049-.938-27.13.466 30.587 5.489 55.808 27.512 64.772 56.769z" fill="#78c2a4"/><path d="m418.537 155.578c1.498-5.769 5.27-16.406 15.536-26.069 13.331-12.548 30.192-16.471 41.152-17.66 3.23-.35 4.031-4.119 1.139-5.422-10.844-4.883-28.816-10.58-50.059-7.521-32.074 4.619-58.743 27.349-67.824 57.805z" fill="#95d6a4"/><path d="m476.364 106.428c-10.844-4.883-28.816-10.58-50.059-7.521-.962.139-1.918.295-2.87.466 9.282 1.614 17.131 4.444 22.929 7.055 2.893 1.302 2.091 5.071-1.139 5.422-10.96 1.189-27.821 5.112-41.152 17.66-10.266 9.663-14.039 20.3-15.536 26.069h30c1.497-5.769 5.27-16.406 15.536-26.069 13.331-12.548 30.192-16.471 41.152-17.66 3.23-.351 4.032-4.12 1.139-5.422z" fill="#78c2a4"/></g><path d="m338.66 174.546c-3.893-5.945-14.711-24.344-9.549-48.182 4.142-19.133 16.492-32.133 23.574-38.385 1.42-1.253 3.895-1.307 5.393-.111 6.997 5.589 21.38 19.207 23.997 39.924 3.106 24.59-12.539 41.967-16.28 45.904-9.046.284-18.091.567-27.135.85z" fill="#95d6a4"/><path d="m382.074 127.793c-2.617-20.717-17-34.334-23.997-39.924-1.498-1.196-3.973-1.142-5.393.111-3.274 2.89-7.671 7.241-11.865 12.955 5.157 6.858 9.865 15.857 11.255 26.858 2.807 22.219-9.694 38.546-14.892 44.393.553.923 1.057 1.719 1.477 2.361 9.045-.283 18.089-.567 27.134-.85 3.742-3.938 19.387-21.314 16.281-45.904z" fill="#78c2a4"/><path d="m426.667 335.47h-143.113l-50.695-65.904c-6.889-8.956-7.476-20.521-1.52-29.973l52.215-82.881h143.113l52.215 82.881c5.955 9.453 5.369 21.017-1.52 29.973z" fill="#fead8a"/><path d="m478.882 239.592-52.215-82.881h-30l52.215 82.881c5.955 9.453 5.369 21.017-1.52 29.973l-50.695 65.905h30l50.695-65.905c6.889-8.956 7.475-20.52 1.52-29.973z" fill="#fd9468"/><path d="m426.667 135.087h-143.113c-6.839 0-12.382 4.841-12.382 10.812v10.812c0 5.971 5.544 10.812 12.382 10.812h143.113c6.839 0 12.382-4.841 12.382-10.812v-10.812c0-5.971-5.544-10.812-12.382-10.812z" fill="#ffdcce"/><path d="m426.667 135.087h-30c6.839 0 12.382 4.841 12.382 10.812v10.812c0 5.971-5.544 10.812-12.382 10.812h30c6.839 0 12.382-4.841 12.382-10.812v-10.812c0-5.971-5.544-10.812-12.382-10.812z" fill="#ffc5ad"/></g><g><path d="m7.502 504.5 188.169-104.986c3.811-2.126 12.451-.917 12.451-.917l90.404 14.509c2.793.448 5.601.795 8.418 1.039 13.107 1.137 26.311.052 39.056-3.208l146.451-57.851c5.909-1.129 10.554-5.706 11.764-11.594 1.616-7.863-3.773-15.449-11.736-16.521l-190.72 5.093-49.972-1.989-251.785 80.554v93.306c0 3.109 3.392 5.03 6.058 3.43z" fill="#ffcebf"/><path d="m492.479 324.972-18.107.484c-.044.345-.085.691-.157 1.038-1.21 5.888-5.854 10.465-11.764 11.594l-146.451 57.851c-12.745 3.26-25.949 4.344-39.056 3.208-2.818-.244-5.626-.591-8.418-1.039l-90.404-14.509s-8.639-1.209-12.451.917l-165.669 92.431v24.989c0 3.109 3.392 5.03 6.058 3.43l1.442-.865 188.169-104.986c3.811-2.126 12.451-.917 12.451-.917l90.404 14.509c2.792.448 5.601.795 8.418 1.039 13.107 1.137 26.311.052 39.056-3.208l146.451-57.851c5.909-1.129 10.554-5.707 11.764-11.594 1.616-7.863-3.773-15.449-11.736-16.521z" fill="#ffb09e"/><path d="m253.74 339.35c-.101 5.224 3.838 9.646 9.039 10.147l53.895 5.192c15.05 1.45 28.772-8.673 31.813-23.47.733-3.569-1.566-7.056-5.135-7.788l-88.953-18.245z" fill="#ffb09e"/><path d="m253.562 333.609 63.112 6.08c15.05 1.45 28.772-8.673 31.813-23.47.733-3.569-1.566-7.056-5.135-7.788l-88.953-18.245c-4.77-.978-9.661-1.228-14.506-.74l-1.058.107c-29.667 2.988-58.512 11.504-85.044 25.108l-146.289 75.008-4.5 2.599c-1.856 1.072-3 3.052-3 5.196v31.768z" fill="#ffcebf"/><g><path d="m89.944 309.143-.012.005c-10.17 4.405-14.841 16.223-10.431 26.392l49.05 113.08c4.407 10.161 16.215 14.827 26.378 10.425l.012-.005c10.17-4.405 14.841-16.223 10.431-26.392l-49.05-113.08c-4.407-10.16-16.215-14.827-26.378-10.425z" fill="#fff8bf"/><path d="m161.715 424.219c-1.843 2.003-4.115 3.67-6.774 4.822l-.012.005c-10.163 4.402-21.971-.265-26.378-10.425l-45.393-104.65c-5.207 5.659-6.914 14.06-3.657 21.57l49.05 113.08c4.407 10.161 16.215 14.827 26.378 10.425l.012-.005c10.17-4.405 14.841-16.223 10.431-26.392z" fill="#fcea9d"/><path d="m53.115 325.096-.012.005c-10.17 4.405-14.841 16.223-10.431 26.392l49.05 113.08c4.407 10.161 16.215 14.827 26.378 10.425l.012-.005c10.17-4.405 14.841-16.223 10.431-26.392l-49.05-113.08c-4.407-10.16-16.215-14.827-26.378-10.425z" fill="#ffe179"/><path d="m124.886 440.171c-1.843 2.003-4.115 3.67-6.774 4.822l-.012.005c-10.163 4.402-21.971-.264-26.378-10.425l-45.393-104.65c-5.207 5.659-6.914 14.06-3.657 21.57l49.05 113.08c4.407 10.161 16.215 14.827 26.378 10.425l.012-.005c10.17-4.405 14.841-16.223 10.431-26.391z" fill="#fbd268"/></g></g></g><path d="m326.478 267.222c-4.143 0-7.5 3.357-7.5 7.5s3.357 7.5 7.5 7.5h25.479c5.874 0 10.653-4.779 10.653-10.653v-17.979h13.632v21.132c0 4.143 3.357 7.5 7.5 7.5s7.5-3.357 7.5-7.5v-25.479c0-5.874-4.779-10.653-10.653-10.653h-17.979v-13.632h21.132c4.143 0 7.5-3.357 7.5-7.5s-3.357-7.5-7.5-7.5h-25.478c-5.875 0-10.654 4.779-10.654 10.654v17.978h-13.632v-21.132c0-4.143-3.357-7.5-7.5-7.5s-7.5 3.357-7.5 7.5v25.479c0 5.874 4.779 10.653 10.654 10.653h17.978v13.632zm165.804 50.251-43.193 1.154 34.216-44.492c8.76-11.377 9.513-26.508 1.923-38.543l-42.738-67.836c2.536-3.075 4.061-6.894 4.061-11.045v-10.812c0-4.874-2.091-9.297-5.474-12.582 11.272-9.611 25.098-12.94 34.953-14.011 10.196-1.108 13.168-15.316 3.418-19.713-12.421-5.601-33.399-11.616-56.055-7.816-5.991-28.233-43.407-70.465-60.284-88.373-2.042-2.163-4.958-3.404-8.003-3.404-3.044 0-5.96 1.24-8.003 3.406-16.872 17.904-54.285 60.133-60.272 88.372-22.889-3.821-43.448 2.129-56.039 7.808-9.853 4.444-7.355 18.552 3.39 19.719 9.86 1.071 23.694 4.402 34.965 14.01-3.383 3.284-5.475 7.708-5.475 12.583v10.812c0 4.151 1.525 7.971 4.062 11.046l-8.443 13.401c-7.733-4.252-15.735-8.127-23.881-11.545-14.487-6.07-29.568-10.797-44.822-14.048l-26.74-5.711 1.289-4.57c4.116-14.599-4.394-29.831-18.975-33.986-.024-.007-.048-.014-.072-.021-7.362-2.061-15.122-1.041-21.675 2.9-3.384-6.497-9.32-11.646-16.903-13.798-.017-.005-.032-.01-.046-.014-14.495-4.141-30.005 4.564-34.021 19.044l-2.966 10.518-61.411-13.11c-4.052-.86-8.036 1.719-8.9 5.769-.865 4.052 1.718 8.036 5.769 8.901l60.463 12.909-22.822 80.938-34.758-6.206c-4.082-.736-7.974 1.986-8.702 6.064s1.987 7.974 6.065 8.701l33.373 5.958c-2.964 14.049 5.452 28.234 19.379 32.169.031.009.074.021.104.03 7.312 2.123 15.098 1.05 21.676-2.9 3.38 6.49 9.307 11.635 16.878 13.792.023.007.047.014.071.021 14.229 4.065 30.067-4.605 34.021-19.044l2.041-7.238 33.759 6.037c1.173.397 4.095 2.726 6.085 4.848l20.528 23.044c-15.034 4.364-29.649 10.161-43.728 17.378l-25.274 12.96-1.892-4.363c-6.044-13.934-22.302-20.361-36.239-14.323-6.905 2.992-12.448 8.941-14.978 15.951-6.82-2.937-14.6-3.05-21.932.038-13.847 5.83-20.312 22.45-14.262 36.228l4.35 10.029-36.063 18.489c-3.686 1.89-5.142 6.41-3.252 10.096 1.912 3.728 6.475 5.115 10.096 3.252l35.199-18.049 7.677 17.698c1.649 3.8 6.064 5.545 9.865 3.896 3.8-1.648 5.544-6.065 3.896-9.865l-18.008-41.517c-2.804-6.378.288-13.851 6.595-16.552 6.34-2.715 13.718.215 16.465 6.55l49.05 113.08c2.73 6.212-.17 13.928-6.472 16.5-.024.01-.048.02-.071.03-6.351 2.753-13.76-.177-16.517-6.527-2.022-4.659-14.94-34.442-17.093-39.407-1.648-3.801-6.068-5.543-9.865-3.896-3.8 1.648-5.544 6.065-3.896 9.865l11.923 27.488-75.825 42.314c-3.617 2.018-4.913 6.587-2.895 10.203 1.373 2.461 3.926 3.847 6.556 3.847 1.237 0 2.491-.307 3.648-.952l74.582-41.62c6.692 12.763 22.106 17.668 35.258 12.487.032-.013.064-.026.097-.041 6.951-3.159 12.38-8.777 14.968-15.952 6.929 2.981 14.723 2.908 21.849.005.026-.011.054-.023.082-.036 13.532-6.283 20.243-22.622 14.261-36.228l-2.968-6.842 29.95-16.711c1.162-.433 4.901-.477 7.787-.092l90.338 14.501c3.019.474 6.021.845 8.938 1.104 3.517.303 7.125.457 10.725.457 10.434 0 20.811-1.304 30.843-3.874.862-.221 145.819-57.696 146.754-57.908 10.039-2.275 17.384-11.27 17.384-21.618-.002-10.269-8.665-21.346-19.722-21.209zm-64.911-211.139c11.184-1.612 21.432-.57 30.093 1.51-9.476 2.908-19.664 7.856-28.529 16.202-1.205 1.133-2.363 2.319-3.474 3.541h-40.909c11.48-11.352 26.47-18.899 42.819-21.253zm-72.264-89.527c36.175 38.935 51.249 65.664 53.728 78.606-8.918 3.025-17.283 7.4-24.804 12.93-6.088-12.794-15.469-21.697-21.264-26.329-4.306-3.446-10.913-3.299-15.05.344-6.56 5.792-14.779 14.732-20.525 26.741-7.779-5.887-16.49-10.522-25.805-13.683 2.476-12.944 17.545-39.675 53.72-78.609zm17.066 101.965c-2.642 2.767-5.116 5.709-7.401 8.815h-19.324c-2.03-2.759-4.204-5.392-6.518-7.885 4.085-10.571 10.831-18.684 16.617-24.179 5.319 4.636 12.675 12.538 16.626 23.249zm-119.42-10.927c8.66-2.08 18.908-3.122 30.091-1.511 16.44 2.369 31.239 9.792 42.824 21.253h-40.906c-1.106-1.212-2.261-2.397-3.471-3.54-8.872-8.346-19.062-13.294-28.538-16.202zm28.238 67.009c.841.1 1.692.17 2.562.17h87.158c4.143 0 7.5-3.357 7.5-7.5s-3.357-7.5-7.5-7.5h-87.158c-2.012.039-4.873-1.249-4.882-3.312v-10.812c0-1.566 2.005-3.312 4.882-3.312h143.113c2.878 0 4.883 1.745 4.883 3.312v10.812c-.006 2.016-2.849 3.339-4.883 3.312h-20.955c-4.143 0-7.5 3.357-7.5 7.5s3.357 7.5 7.5 7.5h20.955c.871 0 1.723-.07 2.565-.17l43.306 68.738c4.264 6.761 3.835 14.959-1.121 21.396l-41.648 54.156-74.811 1.999c.605-1.983 1.174-4.174 1.174-6.253 0-6.659-4.74-12.466-11.273-13.807-4.362-.895-88.895-18.38-92.823-18.889l-13.231-17.209c-4.954-6.436-5.383-14.633-1.117-21.396zm-202.368 74.082c-1.791 6.498-8.957 10.55-15.413 8.705-.031-.009-.075-.021-.105-.03-6.662-1.882-10.553-8.834-8.674-15.497 1.561-5.535 31.766-112.659 33.451-118.634 1.842-6.532 8.9-10.572 15.414-8.705l.013.004c6.689 1.886 10.668 8.783 8.766 15.523zm38.624 10.912c-1.813 6.552-8.982 10.738-15.462 8.691-.019-.006-.037-.011-.056-.017-6.662-1.882-10.553-8.834-8.674-15.497l33.452-118.634c1.816-6.58 8.88-10.47 15.463-8.69.018.005.036.01.054.016 6.662 1.882 10.554 8.834 8.675 15.497zm67.465-2.326c-.033-.037-.065-.073-.099-.109-1.793-1.935-8.13-8.333-14.401-9.445l-32.396-5.793 21.952-77.851 27.69 5.913c14.345 3.058 28.528 7.503 42.151 13.211 7.383 3.098 14.646 6.592 21.673 10.422l-26.285 41.72c-7.592 12.038-6.838 27.168 1.918 38.542l6.519 8.479c-7.733.926-15.387 2.208-22.947 3.847zm-32.815 194.665c-6.341 2.711-13.717-.216-16.465-6.551l-.004-.01c-.001-.003-.002-.006-.003-.008l-49.045-113.066c-2.825-6.432.291-13.858 6.602-16.552 6.338-2.705 13.713.222 16.46 6.553l49.05 113.08c2.757 6.275-.306 13.865-6.595 16.554zm337.799-106.072-146.005 57.675c-8.677 2.184-17.646 3.291-26.67 3.291-3.171 0-6.346-.135-9.417-.4-2.567-.228-5.231-.557-7.895-.975l-90.399-14.511c-.049-.008-.099-.016-.148-.022-2.611-.365-11.564-1.317-17.145 1.788l-28.732 16.032-32.209-74.255 26.136-13.403c25.808-13.23 53.521-21.413 82.32-24.317 4.283-.432 9.119-.33 13.362.521l88.05 18.055c-2.602 10.512-12.509 17.707-23.555 16.633l-63.109-6.08c-4.118-.387-7.787 2.624-8.185 6.746-.397 4.123 2.623 7.788 6.746 8.186l63.11 6.08c11.125 1.064 22.284-3.083 29.869-10.764l146.142-3.906c2.904.619 5.038 3.2 5.038 6.193.002 4.328-3.74 6.265-7.304 7.433z"/></g></svg>