<svg width="863" height="663" viewBox="0 0 863 663" fill="none" xmlns="http://www.w3.org/2000/svg">
<g clip-path="url(#clip0)">
<path fill-rule="evenodd" clip-rule="evenodd" d="M269 301.442C272.1 333.142 275.3 364.842 278.4 396.542C295.5 386.742 312.6 377.042 329.7 367.242V458.442C329.7 460.142 328.7 465.842 329.7 467.342C330.5 468.542 336.8 468.642 338.3 468.842C348 470.242 357.7 471.442 367.4 472.442C393 475.242 420.3 479.342 446 476.042C468.3 473.242 489.9 465.242 510.3 456.042C517.5 452.842 524.5 449.342 531.4 445.642C532.9 444.842 538.2 443.042 539 441.442C539.7 440.142 538.1 435.542 537.9 434.142C537 428.342 536.2 422.542 535.3 416.742L523.3 335.842L546 358.542C547.8 360.342 551.2 365.342 553.6 366.142C555.4 366.742 559.9 364.942 561.7 364.542C574.6 362.042 587.4 359.542 600.3 357.142C603.3 356.542 610.1 356.542 612.6 354.742C614 353.742 614 351.742 614.5 349.942C617.6 337.642 620.8 325.342 623.9 313.042C624.5 310.842 627.6 303.842 626.8 301.642C626.5 300.842 625.1 300.342 624.3 299.742C604.9 287.842 585.5 276.042 566 264.142C555.4 257.642 544.7 251.142 534.1 244.642C529.6 241.942 524.2 237.042 519.1 235.442C516 234.542 511.4 235.242 508.2 235.142L488.4 234.542C487.4 234.542 483.8 233.742 482.9 234.342C482.2 234.842 482.5 235.542 482.2 236.742C481.747 239.758 481.446 242.795 481.3 245.842C481.1 248.242 481.5 252.642 480.4 254.842C479.7 256.242 480.6 255.642 479.7 256.342C478.6 257.142 475 256.842 473.7 257.042C467.2 257.842 460.8 258.542 454.3 259.342C446.6 260.242 438.9 261.942 431.1 261.142C419.4 259.942 406.8 260.042 395.3 257.542C392.3 256.942 391.2 255.242 388.9 252.942C384.4 248.442 380 243.942 375.4 239.442C373.2 237.242 374.1 237.642 371.8 238.442C368.9 239.442 366 241.942 363.4 243.542C353.4 249.642 343.4 255.742 333.5 261.742L272.6 298.842C271.484 299.82 270.279 300.69 269 301.442" fill="#4D4959"/>
<path fill-rule="evenodd" clip-rule="evenodd" d="M851.6 305.315C839 353.015 813.8 405.015 762.9 420.115C750.5 423.815 738.5 426.615 725.6 425.215C724.466 425.148 723.328 425.182 722.2 425.315C720.1 425.315 721.9 426.115 719.6 425.415C717.8 424.815 716.1 423.415 714.2 422.815C709.2 421.115 703.8 420.815 698.6 419.515C685.804 416.2 673.187 412.228 660.8 407.615C655 405.515 649.8 402.515 644.4 399.715C638.9 396.815 633.1 395.015 627.5 392.315C623.1 390.215 615.6 387.515 612.5 383.515C609.2 379.315 613.8 370.315 615.1 365.915C619.5 350.715 624.8 335.715 628.1 320.215C639.6 333.515 655.6 341.815 672.1 347.115C681.068 350.004 690.269 352.112 699.6 353.415C708.1 354.615 717.2 356.015 725.7 354.315C732.1 353.015 740.1 350.115 744.7 345.215C746.3 343.515 748.3 340.315 747.4 337.715C746.2 334.515 742.9 336.015 741 333.615C739.4 331.515 739.7 326.615 739.1 324.115C738.206 319.637 737.003 315.227 735.5 310.915C732.6 302.515 728.9 294.015 728.1 285.115C727.347 277.479 729.064 269.802 733 263.215C734.8 260.015 739.4 251.315 743.9 251.715C748.8 252.115 742.2 272.915 742 277.115C741.1 293.915 743.4 311.915 752 326.615C755.3 332.215 760.1 338.815 767.1 339.515C774.6 340.215 780.6 334.415 784.2 328.415C792.9 313.915 788.5 294.015 784.1 278.715C778.7 260.015 764.6 247.215 755.7 230.415C769 231.715 776.1 240.215 782.9 250.915C790.604 263.087 796.089 276.528 799.1 290.615C800.6 297.515 799.6 304.515 799.6 311.515C799.6 313.815 799.6 322.415 803.4 322.115C807.5 321.715 808.8 312.115 809.4 309.115C810.8 302.315 812.2 295.615 813.4 288.715C815.5 276.715 816.4 264.315 818.9 252.415C819.3 250.415 820.2 244.815 823.2 246.315C825.5 247.515 825.2 256.115 825.2 258.215C825.4 263.215 825.7 268.115 825.7 273.115C825.8 280.515 824.3 288.115 825 295.415C825.5 300.215 828 305.515 831.2 299.015C834.4 292.615 835 284.615 836.8 277.715C838.7 270.515 840.6 263.115 844.5 256.715C845.6 254.915 846.8 252.115 849.2 252.915C851 253.515 852.3 257.715 852.8 259.115C855.3 265.715 854.8 273.115 854.7 280.115C854.779 288.615 853.737 297.088 851.6 305.315ZM606.8 317.715C605.413 317.45 604.01 317.283 602.6 317.215C601.8 317.115 602.7 315.615 600.7 316.015C600.872 316.477 601.153 316.891 601.518 317.221C601.884 317.552 602.323 317.79 602.8 317.915C599.8 318.915 597.6 316.415 595.5 316.115C593.5 315.815 593.4 316.115 591.5 318.215C589.4 315.615 589.8 317.215 588.1 317.215C587.5 317.215 587.4 318.215 586.4 318.015C585.5 317.915 585.4 316.515 584.9 316.415C582 315.515 579.1 319.915 575.8 316.115C575 320.115 565.9 315.115 562.5 315.815C558.8 316.515 560.4 317.815 557.5 315.615C554.7 313.515 555.5 314.915 552.2 316.615C552.3 316.615 550.4 317.915 550.5 317.915C548.2 317.615 548.4 315.315 545.5 315.415C542.5 315.515 541.2 317.915 538.4 315.015C537.8 317.215 537.7 316.215 536.2 316.815C535.829 316.919 535.436 316.918 535.065 316.812C534.694 316.706 534.36 316.5 534.1 316.215C534.027 316.494 533.875 316.747 533.662 316.942C533.449 317.137 533.185 317.267 532.9 317.315C531.3 317.415 528.4 317.715 527 316.915C524.9 315.815 526.6 315.315 525.1 314.115C524.4 317.615 523 316.815 520 317.215C517.7 317.415 517.2 316.715 515 316.415C512.8 316.115 510 316.915 507.9 317.315C507 317.415 505.8 318.115 505 317.815C504.2 317.615 503.8 317.015 503.4 316.815C502.8 316.615 502.9 316.115 501.9 315.815C501.2 315.615 500 316.315 499.3 316.415C494.3 317.215 489.6 317.215 484.9 315.315C487.2 319.415 479.5 317.215 478.1 315.515C476.4 318.215 474.3 316.315 470.8 316.515C467.4 316.715 462.4 317.715 461 313.515C460.288 314.929 459.303 316.186 458.1 317.215C455.9 318.315 455.6 316.715 453.6 316.015C450.8 315.115 451.4 316.815 449.7 317.215C446.8 317.815 445.2 315.715 442.6 314.615C442.5 316.315 442.4 317.315 441 318.415C439.7 313.715 435.1 318.815 435.9 312.515C434.1 313.615 431.6 314.515 431.1 316.915C434.1 316.115 431.4 318.015 431.3 318.115C430.9 318.315 429.6 316.515 429.3 316.215C429.183 317.077 429.116 317.945 429.1 318.815C427.986 318.153 426.917 317.418 425.9 316.615C425 316.115 426.3 315.115 424.8 315.115C424 315.115 423.2 316.715 422.4 316.915C421.2 317.115 421.8 315.415 421.2 315.415C420.4 315.515 419.1 316.615 418.5 316.615C416.6 316.515 417.9 315.615 416.4 315.215C413.7 314.515 413.9 316.215 412 316.815C407.6 318.215 408.1 311.615 403.6 316.015C402.5 317.115 401.9 318.715 400.4 318.615C397.4 318.415 398.4 314.815 399.1 313.115C399.7 313.415 388.1 319.415 388.2 319.215C388.3 317.815 390.1 316.715 388.5 315.415C387.2 318.315 385.8 318.315 382.7 318.915C381.2 319.215 380.9 319.515 379.3 318.915C378.3 318.515 377.6 316.915 376.6 316.815C375.964 317.385 375.296 317.92 374.6 318.415C372.9 319.215 371.9 318.315 370.2 318.615C368.8 318.915 368.3 320.115 366.9 319.715C365 319.315 366.1 317.115 363.6 317.715C362.7 317.915 362.2 319.615 360.8 319.915C358.7 320.415 356 319.415 353.8 320.015C352.256 320.38 350.684 320.614 349.1 320.715C347.8 320.815 348.4 319.815 346 320.915L345 318.415C343.8 319.515 342.7 320.515 341.5 321.615C341.262 320.666 341.128 319.693 341.1 318.715C339.4 320.415 337.2 320.715 334.8 320.915C332.477 321.169 330.172 321.57 327.9 322.115C327.1 322.215 325.1 322.515 324.5 322.215C324.6 322.215 323.3 321.715 323.7 321.815C323.5 321.515 323.4 321.115 323.2 320.815C323 319.815 322.3 319.815 321.1 320.715C320.5 320.615 319.3 319.815 318.7 320.015C317.1 320.515 317.3 321.815 315.7 321.615C314.7 321.515 314.1 320.015 313.1 319.915C311.5 319.715 310 321.615 308.6 322.015C313.1 320.815 302.8 321.715 306 321.815C303.9 321.715 301.7 321.615 299.8 322.615C298.7 321.915 300 320.415 298.9 319.815C297.9 319.215 297.8 320.715 297.7 320.715C298.3 320.515 298 321.815 297.4 322.015C295.5 322.715 293.9 320.915 293.8 319.215C292.2 321.715 291.7 320.715 289.3 320.815C286.9 321.015 284.9 322.215 282.5 322.215C277.8 322.215 274.6 320.515 273 316.315C278 316.915 283.1 313.715 288 314.415C289.6 314.715 290.6 315.915 292 315.615C293.7 315.315 295 313.415 297.2 313.215C302.1 312.715 307 313.215 312 312.415C317.98 311.432 324.048 311.097 330.1 311.415C334.7 311.715 338.5 310.015 343.2 309.615C349.3 309.215 355.4 309.115 361.5 308.815C367.7 308.515 374.5 307.515 380.7 307.815C382.528 307.982 384.364 308.048 386.2 308.015C387 308.015 387.8 307.415 388.6 307.515C389.7 307.615 390.2 308.715 391.4 308.715C393.4 308.615 395.5 307.015 397.8 307.015C401.6 306.915 405.5 306.915 409.3 306.715C412.7 306.515 416.3 305.715 419.7 305.815C422.1 305.815 422.7 307.915 424.1 308.115C426.6 308.515 439.2 301.315 440.3 307.715C446.9 303.215 455.7 307.015 463 306.215C472.4 305.115 482 306.115 491.4 305.715C501.109 305.365 510.831 305.666 520.5 306.615C524.415 307.081 528.36 307.248 532.3 307.115C534.1 307.015 536.1 306.515 537.9 307.015C538.3 307.115 541.6 309.415 541.2 309.515C543 307.915 541.8 307.615 544.9 307.615C547.3 307.515 549.6 308.115 552.1 308.215C556.5 308.515 560.8 307.915 565.2 308.015C568.8 308.115 572.4 308.615 576 308.715C579.9 308.715 584.6 308.815 587.4 312.015L586.5 309.015C590.9 309.315 595.2 310.915 599.7 310.215C598.6 311.315 597.4 312.215 597 313.715C599.4 313.415 601 311.715 603.5 311.715C605.6 311.715 606.1 312.715 608.3 311.415C608.6 313.115 608.8 314.815 609.1 316.415C612.2 315.715 610.2 313.415 610.4 311.315C612.9 312.115 615 311.215 614.1 314.815C612.9 317.215 609.4 318.515 606.8 317.715ZM602.4 348.815C601.3 351.815 592 350.115 589.8 349.815C586.9 349.415 583.7 348.715 581.1 348.415C580.785 348 580.415 347.63 580 347.315C579.711 347.803 579.246 348.161 578.7 348.315C577.5 348.615 577.5 349.815 575.9 349.515C575.8 351.315 577.1 350.315 578.1 351.015C575.6 352.715 576.8 350.715 575.4 350.815C575.262 350.578 575.051 350.392 574.799 350.284C574.547 350.176 574.267 350.152 574 350.215C573.209 350.402 572.461 350.742 571.8 351.215C571.2 351.915 570.7 351.915 570.2 351.315C569.797 350.896 569.272 350.616 568.7 350.515C566.3 350.915 565.6 352.015 562.8 351.815C558.9 351.515 554.7 352.615 550.8 352.015C548.4 351.715 544.4 347.915 543.3 351.615C541.6 348.915 539 347.015 537.4 344.315C544.8 343.915 552.1 343.415 559.5 343.115C566 342.915 573 343.615 579 343.315C584.6 343.015 590.6 342.415 596.4 341.915C602.6 341.315 604.6 342.615 602.4 348.815ZM410.4 349.215C413.1 349.915 415.6 348.315 418.2 348.815C419.1 349.015 420.8 350.515 421.2 350.615C421.9 350.715 424 349.115 424.9 348.915C430.932 347.733 437.122 347.598 443.2 348.515C446.2 348.915 446.7 347.515 449.3 346.915C452 346.215 455.9 346.715 458.8 346.515C465.6 346.015 472.4 346.415 479.1 345.915C486 345.415 492.9 345.115 499.8 344.815C504.5 344.615 515.8 341.915 519.7 345.415C522.9 348.315 518.8 353.315 515.6 354.415C513.2 355.315 512 353.515 510.3 353.615C508.3 353.815 509 356.215 507.2 354.015C506.1 356.215 499 355.315 497 355.415C492.6 355.715 488.8 356.615 485.8 352.515C486 353.715 486.2 354.915 486.4 356.115C482.4 354.015 478.1 354.715 474.7 355.415C473 355.815 467.7 358.315 465.9 357.215C464.6 356.415 466.9 355.215 464.7 354.515C463.6 354.215 461.6 356.015 460.2 355.915C456.4 355.615 457.5 353.115 453.7 356.315C453.098 355.726 452.647 355 452.386 354.199C452.125 353.398 452.061 352.546 452.2 351.715C449.5 354.015 449.7 357.915 444.8 357.215C443 356.915 442.6 355.115 441.7 354.715C439.7 354.015 439.5 355.315 437.7 356.315C437.032 356.799 436.289 357.171 435.5 357.415C433.9 357.615 433.7 356.815 433.4 356.915C432.3 357.015 431 357.615 429.7 357.215C428.6 356.915 428.2 354.915 426.2 355.315C424.3 355.715 424.3 357.015 424.6 359.015C422.7 358.815 421.6 357.815 420.2 356.615C418.8 359.915 415.8 357.215 414.1 360.015C411.9 357.415 410.6 358.115 407.9 355.615C408 356.615 408.2 357.715 408.3 358.715C406.2 358.315 405.3 356.815 403.5 358.815C401.8 355.615 396.5 360.215 393.8 357.115C392.6 361.015 384.7 360.115 381.3 360.215C378.3 360.315 376.1 360.015 373.2 360.715C370.425 361.43 367.565 361.766 364.7 361.715C362.952 361.404 361.172 361.303 359.4 361.415C356.6 361.715 354.1 363.215 351.2 362.515C346.8 361.515 344.1 355.715 349 353.115C352.4 351.415 358.4 352.015 362.1 351.715C368.2 351.215 375.1 350.015 381.3 350.615C386.1 351.015 390.5 349.915 395.3 349.415C399 349.015 405 348.415 407.4 352.015C408.5 350.915 408.4 348.715 410.4 349.215ZM343.2 399.115C342.5 395.815 370.6 394.015 373.4 393.815C379.2 393.315 385.1 393.015 391 392.915C395.8 392.815 400.3 393.715 405.1 393.015C409.6 392.315 415 390.915 418.9 394.115C419.5 389.715 436.4 391.915 439.6 391.915C453.6 392.015 467 392.015 480.5 391.115C488.2 390.615 496.4 389.915 504.2 390.315C507.7 390.515 510.5 391.415 514 390.615C516.3 390.115 518.7 389.015 520.9 390.515C523.4 392.315 524.5 398.515 522.8 401.015C521.5 402.915 520.4 402.715 518.4 402.315C515.3 401.815 513 401.115 509.8 402.415C509.154 402.481 508.518 402.615 507.9 402.815C504.3 403.115 499.4 405.615 496.3 402.715C497.5 402.915 499.4 400.715 497.8 400.515C496.6 400.415 495.9 401.615 495 402.015C491.9 403.415 490.2 403.015 488.4 400.015C484.6 403.315 484.2 402.415 482.5 398.315C481.2 399.315 480.9 401.615 479.9 402.415C479.8 402.515 480.4 403.915 479.6 403.915C478.9 403.815 478.7 402.715 478.2 402.715C477.9 402.615 477.7 401.715 477.4 401.615C477.1 401.515 476.7 402.215 476.3 402.115C475.3 402.115 472.3 404.315 473.4 401.215C471.8 403.215 471.1 401.915 470.6 400.115C468.8 401.515 467 402.915 465.1 404.215C464.3 401.815 462.8 402.515 461 403.315C461.6 401.715 461.2 400.115 459.8 401.315C459 402.015 458.5 404.015 457.6 404.915C454.3 401.515 453.1 402.515 448.5 402.915C446.7 403.115 444.6 403.415 443 402.315C441.6 401.415 440.8 398.015 438.5 400.715C439 400.115 438.2 404.815 438.1 405.515C437.09 404.805 436.21 403.925 435.5 402.915C434.1 405.615 430.6 403.215 427.7 403.715C423.1 404.615 418.4 406.015 414.3 402.615C414 403.715 410.7 405.115 410.7 405.115C410.9 403.115 412.1 403.815 409.6 403.515C409.1 403.415 408.6 404.315 408.2 404.415C406.604 404.565 404.996 404.565 403.4 404.415C397.1 404.215 391.4 405.615 385.2 406.115C383.1 406.315 380.6 406.615 378.7 405.815C376.7 405.015 376.7 404.115 374.7 404.615C375.3 404.415 373.4 406.515 373.5 406.415C373.2 406.615 372.1 405.615 371.7 405.715C371.613 406.161 371.479 406.597 371.3 407.015C370.8 406.915 370.3 406.915 369.8 406.815C368.5 407.015 367.2 405.615 366 405.615C366.2 405.615 362.6 407.015 362.7 407.115C360.1 405.815 360.9 406.215 357.6 407.015C354.5 407.715 351.5 407.615 348.4 408.015C338.9 409.315 344.3 404.715 343.2 399.115ZM335.2 444.815C333.5 442.415 338.1 441.515 339.5 441.315C341.9 440.915 345.1 441.615 346.7 441.315C349.1 440.715 351.5 439.315 354.2 439.015C357.7 438.515 361.1 438.515 364.6 438.215C365.821 437.988 367.058 437.855 368.3 437.815C370 437.915 370.7 438.815 372 438.815C374.3 438.815 377.2 437.415 379.5 437.115C382.5 436.815 385.6 436.615 388.6 436.415C395 436.115 401.3 436.215 407.8 436.215C410.7 436.215 418.5 433.215 420 436.615C422 434.015 427.2 434.415 430.1 434.315C435.2 434.215 440.2 433.715 445.3 433.415C449.7 433.215 454.5 434.115 458.8 433.515C461.2 433.115 461.9 432.415 464.6 432.715C466.6 433.015 469.6 431.915 471.3 432.415C471.2 432.415 473.4 433.815 472.7 433.815C473.5 433.815 473.4 434.315 474.3 434.015C475.4 433.715 474.9 432.315 477.2 431.815C480.8 431.015 485.5 431.915 489.2 431.715C492.8 431.515 496.4 431.415 500 431.415C501.7 431.415 503.7 431.015 505.3 431.315C506.1 431.515 507.8 432.515 508.4 432.415C510.3 432.115 511.3 430.815 513.8 430.915C516.601 431.048 519.408 430.982 522.2 430.715C525 430.515 525.4 430.115 526.8 432.415C528.2 434.715 528.6 437.715 526 439.315C527.6 439.215 529.7 441.415 527.7 442.615C526.5 443.415 524.1 441.715 522.7 441.815C520.9 442.015 519.5 442.915 517.6 442.915C515.6 443.015 513.5 443.515 511.5 443.515C509.4 443.515 507.9 442.615 505.9 443.015C504.2 443.315 504 444.815 501.9 443.515C500.9 442.915 500.7 440.615 499.3 440.615C497.4 440.615 498.2 443.015 497.1 444.215C496.8 440.715 494.1 446.515 493 442.215C492 443.615 488.3 445.615 486.6 444.515C485 443.515 485.5 441.115 484.8 439.415C483.7 442.415 480.7 445.615 480.9 440.115C479.4 441.915 475.5 441.615 476.5 444.815C475.3 444.815 475 443.115 474 442.915C473.1 442.815 472.4 443.515 472.3 443.415C472.8 443.415 470.9 444.115 470.9 444.115C472.2 443.815 467.2 443.415 468 443.415C466.8 443.415 465.4 444.315 464.1 444.315C462.9 444.315 461.6 443.815 460.4 443.715C457.2 443.315 457.9 444.015 455.9 445.015C455.2 445.415 455 446.015 453.9 445.915C453.1 445.815 452.8 444.815 452.8 444.815C451.7 444.715 452.5 444.315 450.8 444.515C450.6 444.815 450.4 445.215 450.2 445.515C449.944 445.893 449.558 446.164 449.115 446.275C448.672 446.385 448.204 446.328 447.8 446.115C445.3 446.615 437.1 448.915 437.9 444.715C436.6 445.315 435.4 445.915 434.1 446.515C433.6 443.115 426.7 447.615 425.2 447.915C423.2 448.215 423.1 447.415 421.2 447.015C420.9 446.915 420.2 448.015 419.4 447.915C417.4 447.515 417 447.315 416.7 445.115C415.2 447.815 414 446.615 411.4 447.015C410.8 447.115 410.4 448.215 409.6 448.015C409 447.915 409 446.815 408.6 446.615C408.2 446.515 408.3 445.615 407.7 445.515C407.1 445.415 404.9 447.115 404.3 447.415C402.9 448.015 400.6 449.015 399.3 448.715C397.6 448.315 398.4 447.115 396 447.215C392.2 447.415 390.7 450.615 388.4 445.615C387.3 447.615 387.5 448.215 385.8 448.815C384.6 449.315 381.4 448.815 379.7 448.715C372.7 448.415 365.8 450.815 358.8 450.215C355.7 449.915 353.2 449.315 350.1 449.815C346.9 450.315 343.7 451.115 340.4 451.415C338.7 451.615 335.2 452.015 334.4 449.915C334 448.215 336.7 446.915 335.2 444.815ZM348.9 522.115C339.8 528.215 332.2 536.515 323.9 543.615C315.5 550.715 308.8 558.515 301.3 566.415C294.3 573.615 287.9 580.515 279.5 586.015C274.2 589.515 269.4 593.715 263.9 597.015C259.8 599.415 253.6 602.715 255.6 595.215C257.7 587.515 261.4 579.815 264.7 572.615C269.4 562.415 274.1 552.315 279.2 542.415C281.1 538.715 282.2 534.915 285.2 531.915C288.5 528.615 290.8 524.415 294.4 521.315C309.5 508.315 332.3 518.315 348.9 522.115ZM377.5 526.515C373.4 528.715 368.7 529.215 364.4 530.615C360.7 531.815 357.2 534.015 353.2 534.215C356.9 531.515 360 527.715 364.1 525.615C368.7 523.315 372.9 525.015 377.5 526.515ZM559.1 544.615C543.9 539.515 529.7 531.915 514.9 525.815C512.3 524.715 492.3 518.215 492.7 515.015C506.7 512.415 521.2 508.015 535.2 512.815C548 517.215 558.4 527.715 568.3 536.415C570.9 538.715 586.8 549.115 585.4 552.415C584.4 554.715 576.7 554.115 574.9 553.615C572.6 553.015 571.2 551.615 569.4 550.015C566.316 547.615 562.828 545.786 559.1 544.615ZM531 458.815C533.3 456.715 534.7 453.415 536.9 451.515C539.7 449.015 544.3 450.215 547.4 451.515C556.7 455.415 564.7 462.015 573.9 466.115C584.1 470.615 593 476.715 602.3 483.015C610.7 488.715 619.9 493.515 628.5 498.915C637.3 504.515 647.1 508.115 656 513.515C665.1 519.015 674.1 524.415 682.8 530.515C698.3 541.215 714.5 552.315 726 567.515C732.044 575.544 737.333 584.113 741.8 593.115C745.7 601.115 750 612.215 744.9 620.615C740 628.615 731.6 634.915 724.6 640.915C721.9 643.215 719.4 645.915 715.9 646.915C711.7 648.115 706.7 647.815 702.4 648.115C679.2 650.015 657.5 648.215 634.7 644.115C612.6 640.115 590.5 637.915 568.2 635.115C555.7 633.515 543.1 631.715 530.7 629.115C525.4 628.015 520 626.715 514.9 625.215C510.4 623.915 506.6 620.915 501.9 619.815C482.2 614.915 459.6 613.015 440.1 604.715C457.4 597.515 475.7 593.215 493.5 587.215C512.1 580.915 530.3 575.615 550 573.915C560.1 573.015 569.2 570.415 578.9 567.715C588.2 565.115 597.8 564.315 607.4 563.215C611.6 562.715 623.7 563.515 625.1 557.915C627.2 549.715 615.3 548.715 610.3 549.415C603.1 550.415 597.2 552.215 591.7 546.315C586.1 540.315 580.6 534.115 574.9 528.215C564.3 517.215 553.4 504.515 538.4 499.515C520.1 493.515 499 499.215 480.7 502.615C461.5 506.215 442.2 509.715 423.3 514.915C415.5 517.115 405.4 521.915 397.3 521.115C389.3 520.315 380.2 519.015 372.5 516.715C369 515.715 366.1 513.715 363 511.915C358.9 509.615 354.5 508.115 350.2 506.215C341.5 502.515 333 499.115 323.5 497.715C315.6 496.515 307.1 495.815 299.4 498.515C291.9 501.215 285.2 506.815 279.9 512.715C274.2 519.115 269.5 526.415 264.8 533.615C262.6 537.115 259.8 540.115 257.5 543.515C255.5 546.315 254.4 549.515 252.3 552.315C247.7 558.515 244.5 566.415 241.7 573.615C238.6 581.615 235.1 591.115 235.9 599.715C236.2 603.015 236.5 607.315 237.7 610.415C239.3 614.315 241.6 614.215 244.9 615.615C250.6 618.115 252.2 625.015 259.6 623.715C266.5 622.415 272.5 616.715 277.5 612.215C284.1 606.315 290.4 600.115 296.6 593.815C303.201 587.417 309.193 580.421 314.5 572.915C316.5 569.915 318.1 566.615 320.5 563.915C323.5 560.515 327 560.115 331.1 558.715C367.2 546.815 403.5 535.315 440.7 527.415C449.6 525.515 458.6 523.115 467.4 520.615C476.7 517.915 481.5 520.815 489.2 525.815C505.2 536.415 524.2 543.915 542 550.815C547.6 553.015 556.6 553.115 561 557.415C535 561.415 510.2 569.015 485.1 576.615C472.7 580.315 460.2 583.615 447.8 587.215C435.4 590.815 423.4 595.415 411.2 599.515C399 603.515 386.1 605.215 373.8 608.915C361.315 612.558 348.626 615.463 335.8 617.615C322.8 619.915 309.8 622.615 296.7 624.715C290.7 625.715 284.7 626.615 278.8 628.015C273 629.315 267.4 632.415 261.6 633.115C235.6 636.315 210.1 643.415 184.2 647.415C164.9 650.415 131.2 654.615 118.7 635.215C106.1 615.715 121.6 592.915 135.4 579.015C144.045 570.396 153.525 562.658 163.7 555.915C174.5 548.615 184.9 540.815 195.8 533.515C220.3 517.115 246.9 503.715 273.2 490.515C285.8 484.215 298 477.415 310.3 470.415C316.4 467.015 319.8 472.515 324.6 476.315C328.4 479.315 335.4 486.615 340.7 483.215C340.9 484.415 341.1 485.615 341.3 486.915C342.9 486.215 344.4 485.515 346 484.815C347 487.515 346.9 489.215 349.8 490.715C351.6 491.615 355.4 492.615 357.1 491.115C357.4 492.215 357.8 493.315 358.1 494.315C359.6 494.215 359.9 489.915 360.2 488.915C362.8 492.615 366.3 495.815 370.8 496.815C370.8 496.615 370.1 493.515 370.1 493.515C371.5 492.615 373.3 496.415 374.1 497.215C376.6 499.815 378.1 499.415 380.9 497.315C381.1 497.515 382 500.015 382.2 499.915C382.8 499.715 383.9 497.515 384.1 497.415C383.9 500.215 389.4 500.815 391.4 500.215C391 499.415 390.5 498.515 390.1 497.715C396.9 496.815 399.5 504.015 406 503.615C410.8 503.315 406.9 502.315 409.7 500.215C412.1 498.415 412.5 502.315 412.7 502.215C413.155 501.748 413.527 501.207 413.8 500.615C414.7 504.015 421.7 507.015 420.9 501.415C423.6 502.515 425.6 504.315 428.6 504.715C432.3 505.215 436.2 504.415 439.9 504.115C447.8 503.415 455.3 501.815 462.5 498.215C466.7 496.015 471.3 494.115 475.3 491.515C478.6 489.315 485 482.715 489.4 485.615C488.3 482.215 493.6 485.415 493.8 481.015C494.7 481.615 495.5 482.315 496.4 482.915C496.9 481.815 496.8 480.015 497.5 479.015C498.4 477.615 498.9 478.415 499.7 477.715C500.6 476.815 501.4 474.615 502.5 473.915C503.6 473.215 504.9 474.015 506.1 473.415C507.9 472.515 515.8 463.815 514.5 471.315C517.9 470.115 515.3 469.115 515.7 466.815C516.6 462.315 518.6 465.515 520.7 465.915C524.1 466.515 524 463.815 525.9 461.715C527.6 459.815 530.9 459.015 529.7 455.815C530.6 456.215 530.8 457.515 531 458.815ZM327.4 362.115C324.7 365.115 322.7 363.815 319.8 363.415C319.5 362.315 318.9 362.215 318.2 363.015C317.326 363.495 316.381 363.833 315.4 364.015C313 364.615 310.5 364.315 308.1 365.215C308.2 364.415 309 363.015 308.5 362.215C306 363.915 304.5 365.015 301.4 365.115C298.9 365.115 294.6 363.215 292.5 365.515C292.4 364.615 292.4 363.715 292.3 362.915C291.313 363.409 290.43 364.088 289.7 364.915C289.736 363.689 289.347 362.488 288.6 361.515C287 364.915 285.2 365.015 282 363.715C282.4 363.915 278.8 361.715 278.9 362.315C277.8 357.515 295.9 357.915 297.8 357.715C302.6 357.215 307.3 356.915 312.1 356.515C316.6 356.115 320 355.415 323.1 359.215C321.6 353.615 334.8 353.915 327.4 362.115ZM119.3 277.615C119.8 285.815 121.6 294.615 118.4 302.515C115.8 308.915 110.7 316.115 105.2 320.215C93.9 328.715 84.3 318.315 82.7 306.815C81.1 294.915 84.3 280.315 94.6 272.915C100.7 268.515 106.7 268.815 113.8 270.315C115.5 270.615 118.2 270.515 119.1 272.215C119.2 272.615 119 277.615 119.3 277.615ZM269.7 387.315C267.7 388.315 265.7 388.915 264 390.215C263.4 390.715 263.2 391.715 262.6 392.115C261.4 392.815 259.8 392.315 258.6 392.915C256.6 393.915 255.2 395.315 252.8 396.215C249.404 397.646 246.098 399.283 242.9 401.115C237.274 403.986 231.499 406.556 225.6 408.815C222.7 410.015 214.6 412.315 214.9 416.615C214.2 416.815 213.6 415.315 212.2 415.515C210.3 415.715 207.8 417.815 205.9 418.415C202.3 419.415 199.4 419.515 199.4 424.115C198.2 423.315 197.9 421.415 196.4 421.115C194.7 420.815 193.9 422.715 192.5 423.315C190.9 424.015 188.8 423.315 187.2 424.115C186.468 424.859 185.664 425.529 184.8 426.115C183.934 426.234 183.054 426.2 182.2 426.015C178.8 426.715 175.6 428.015 172.1 428.715C168.7 429.415 166.4 429.615 167.8 433.615C164.2 434.315 163.3 430.515 159.3 431.915C154.454 433.552 149.511 434.888 144.5 435.915C141.9 436.415 139.1 437.615 136.4 437.915C134.5 438.115 132.7 437.415 130.8 437.615C128.5 437.915 126.7 438.915 124.4 438.915C122.154 438.83 119.915 438.596 117.7 438.215C117.998 439.094 118.401 439.933 118.9 440.715C117.4 440.415 116.7 438.615 115.4 438.315C114.1 438.015 112.9 439.415 111.7 439.115C111.2 439.015 111.5 437.515 110.7 437.215C109.9 436.915 109.6 437.215 108.8 437.115C108.5 437.115 105.3 436.915 104.8 437.215C103.9 437.715 104.8 438.615 104.6 438.715C101.6 440.915 101.5 439.715 100.2 437.415C98.2 434.015 95.8 436.115 92.2 435.515C88.2 434.815 85 436.615 81.1 436.315C76.8 436.015 71.9 432.815 68.1 431.015C60 427.015 52.1 423.215 45.3 417.115C32 405.215 21.1 390.615 14.7 373.915C7.79999 355.915 6.49999 337.215 7.09999 318.115C7.32957 306.656 8.36546 295.228 10.2 283.915C11.4 276.115 11.7 262.315 20.5 258.715C22 276.915 17.2 295.515 20.3 313.715C21.2 319.215 23.4 326.415 27.6 330.515C33.8 336.515 35.2 327.815 35.8 323.115C36.8 314.215 38.8 305.415 40.1 296.615C41.5 287.815 42.4 278.815 44.3 270.115C45 266.915 50.6 243.615 54.7 244.715C53.9 261.715 51.7 278.415 51.6 295.415C51.6 302.215 51 309.415 51.9 316.215C52.4 319.715 55.6 329.915 61.1 329.115C66.2 328.315 60.6 321.115 60.1 318.315C58.8 310.915 60.4 301.815 61.6 294.415C63.8 280.615 68.7 266.415 76.8 254.815C84 244.415 95.1 234.615 108.5 236.415C114.2 237.215 118.7 238.615 121.6 243.815C123.9 247.915 132.7 252.615 127.6 257.715C122.9 262.415 115.3 258.615 110.1 257.515C106.907 256.885 103.618 256.915 100.437 257.603C97.255 258.291 94.2479 259.622 91.6 261.515C82.5 267.915 77.2 279.415 75.5 290.115C73.2 304.615 79.3 342.515 101.9 334.015C116.9 328.415 128.2 308.015 126.9 292.515C126.4 286.315 124 274.515 132.6 272.815C143.6 270.615 145.2 282.815 144.1 290.715C142.5 302.215 136.4 312.915 129.4 322.015C123.3 329.915 116.3 334.915 109 341.415C106.8 343.315 101.3 347.715 102.3 351.315C103.3 355.215 112 356.415 115.4 357.015C132.5 360.215 151.9 357.315 169 355.015C204.2 350.415 238.9 339.015 267.7 318.215C268.9 331.115 270.3 344.015 270.9 356.915C271.2 363.215 271.2 369.615 271.9 375.815C272.5 379.815 274.1 385.115 269.7 387.315ZM172.2 432.315C170.8 433.015 172.3 428.715 171.9 430.115C174 430.815 174.1 431.615 172.2 432.315ZM318.1 276.115C320.3 273.715 326.3 267.915 328.2 273.415C328.9 271.115 329 267.615 331.7 270.815C332.8 266.915 344.8 267.315 347.7 267.115C357.2 266.615 366.8 266.315 376.2 265.315C395.7 263.415 415.5 264.415 435 264.315C439.237 264.148 443.481 264.282 447.7 264.715C451.8 265.315 456 267.015 460.1 266.315C463.8 265.815 466.2 264.715 470 265.215C474.48 265.767 478.987 266.068 483.5 266.115C503.7 266.015 523.9 266.815 544.1 266.915C548 266.915 552.8 266.115 556.4 267.815C557.8 268.415 559.3 270.515 560.3 270.715C561.5 271.015 560.8 269.115 562.4 269.915C564.5 271.015 562.9 274.515 561.5 275.115C562.3 274.815 560 274.415 560.2 274.415C559.1 274.515 558.1 275.315 556.9 275.315C555.1 275.215 553.5 274.115 552 273.115C552 273.515 552.8 276.215 551.9 276.315C551.1 276.415 550.3 273.815 550.3 273.115C545.8 277.115 541 274.915 535.4 275.415C531.4 275.815 523.1 278.415 520.4 274.315C520.306 275.185 519.918 275.996 519.3 276.615C518.5 277.815 517.8 277.715 517.2 276.315C517 276.315 515.1 276.715 515 276.715C513.6 276.615 511.9 276.115 510.5 276.015C508.4 275.815 508.8 277.415 507 277.415C506.1 277.415 503.7 276.115 502.1 276.015C499.3 275.915 496.4 277.015 493.6 276.715C491.7 276.515 490 274.915 488.1 274.815C485.8 274.715 485 276.515 483.2 274.015C482.8 273.915 482.6 275.415 482.4 275.415C482.4 275.415 480.6 275.715 480.4 275.715C479.683 276.026 478.949 276.293 478.2 276.515C477.3 276.515 476.7 275.815 475.7 275.815C474 275.815 468.8 277.215 468.9 274.215C463 276.415 457.9 275.515 451.9 276.115C449.484 276.268 447.058 276.066 444.7 275.515C441.4 274.915 439.2 275.715 435.9 275.815C432.7 276.015 431.7 274.615 429 273.415C427.9 272.915 427.2 272.315 425.9 272.615C425.2 272.815 425.7 274.015 425.5 274.115C424.4 274.515 423.6 274.115 422 274.215C419.1 274.415 418 276.815 415 274.515C416 274.415 417 274.315 418 274.115C415.2 272.915 411.4 272.315 412.1 276.715C409.7 276.415 411.8 274.715 410.6 274.115C409.4 273.515 408.1 274.515 406.6 275.015C402.6 276.315 399.3 275.615 395.2 275.415C390.5 275.115 379.5 279.015 376.2 274.015C376.1 275.015 375 278.015 373.5 277.815C373 277.815 374.4 274.715 374.5 274.315C373.7 275.915 370.2 276.315 368.5 277.115C368.7 276.215 368.9 275.315 369.1 274.515C367.5 276.215 366.7 275.215 364.8 275.715C364 276.015 362.8 277.715 362.1 277.815C361.746 277.346 361.269 276.985 360.721 276.773C360.173 276.561 359.577 276.506 359 276.615C358.179 276.432 357.333 276.398 356.5 276.515C353.2 276.715 350.2 278.615 346.9 277.315C344 276.215 342.9 273.415 341.2 277.915C340.8 277.115 340.3 276.315 339.9 275.515C339.3 276.415 338.8 277.215 338.2 278.115C336 276.715 335.9 275.915 333.4 276.415C333.109 276.523 332.799 276.569 332.49 276.552C332.18 276.535 331.877 276.454 331.6 276.315C331.5 276.715 331.3 277.215 331.2 277.615C331.1 278.715 330.8 279.115 330.2 278.715C329.732 278.509 329.295 278.239 328.9 277.915C327.3 278.015 325.2 278.515 323.4 278.215C322.7 278.015 318.4 275.815 318.1 276.115ZM368.5 246.615L369.1 247.515C366.4 248.915 365.8 248.115 365.5 245.315C366.8 245.315 367 247.615 368.5 246.615ZM370.1 245.015C371.4 245.615 372.9 246.715 374.1 245.215C374.9 247.515 368.8 250.815 370.1 245.015ZM378.4 246.015C381.1 247.815 374.6 246.415 374.6 246.415C375.079 245.902 375.727 245.58 376.425 245.506C377.123 245.433 377.824 245.613 378.4 246.015ZM401.7 235.815C402.6 240.515 405.2 240.315 409.3 238.215C415.3 235.015 416.3 229.815 416.8 223.615C417.2 217.715 417.9 215.415 424.1 216.615C428.4 217.515 432 216.715 436.3 216.615C440.9 216.515 442.5 217.215 442.9 221.915C443.3 226.615 444.1 230.215 447.6 233.915C451.1 237.615 455.8 239.815 460.3 241.815C462.6 242.915 464.8 244.015 467.4 244.215C468.4 244.315 473.6 243.615 473.7 245.315C473.8 246.515 466.6 250.015 465.8 250.515C462.496 252.393 459.012 253.934 455.4 255.115C447 257.615 438.1 257.815 429.3 257.615C415.2 257.415 395.8 251.415 387.4 238.915C392.1 237.915 396.9 236.915 401.7 235.815ZM400.4 195.415C398.2 193.515 396.7 190.715 394.9 188.515C394.224 187.672 393.371 186.989 392.4 186.515C391.5 185.915 390.9 186.715 390.2 185.415C388.2 181.815 394.4 176.815 387.8 175.415C385.6 174.915 380.2 176.715 379.6 173.515C378.7 169.015 387.3 168.715 389.3 166.415C393.3 161.815 390.6 154.115 393.1 148.915C395.4 143.915 401.4 143.015 406.2 141.515C412.8 139.415 419.5 138.215 426.2 136.515C430.9 135.315 438.7 130.615 443 134.815C436.3 136.315 440.2 138.615 444.7 139.915C449.831 141.298 455.093 142.136 460.4 142.415C465.802 142.967 471.254 142.765 476.6 141.815C481.5 140.815 487 136.515 492.2 137.615C489.3 142.615 480.8 145.315 475.6 146.615C473 147.315 471.3 147.115 471.6 150.415C471.9 153.615 474.7 156.815 475.4 160.115C476.111 164.372 475.591 168.744 473.9 172.715C472.4 176.815 472 177.315 473.3 181.215C475.4 187.315 470.9 194.015 466.7 198.415C449.7 216.315 417.4 209.615 400.4 195.415ZM448.6 133.815C447.9 134.315 443.9 135.415 444 133.815C444.3 131.715 447.9 132.515 448.6 133.815ZM457.8 91.115C456.9 90.415 454.2 90.715 456.1 88.015C456.8 89.215 457.3 90.115 457.8 91.115ZM394.2 74.215C395.531 71.1879 396.569 68.0402 397.3 64.815C397.6 62.715 397 60.415 399.8 60.115C396.1 58.515 396.1 52.215 395.9 48.915C395.6 44.415 394.2 38.415 396.2 34.215C398.2 29.915 401 30.015 401.8 35.115C402.1 37.115 400.9 37.815 400.7 39.215C400.2 42.015 401.2 41.415 402.9 39.315C403.6 41.415 403.9 44.715 406.9 44.515C406.7 43.915 405.6 42.615 405.9 41.915C406.5 40.815 409.4 42.515 409.7 42.715C412.3 44.515 412.9 46.215 411 48.515C413.6 48.815 411.4 51.115 413.1 51.615C415.7 52.515 413.9 48.215 413.7 47.515C414.972 47.9989 416.058 48.8743 416.8 50.015C417.391 50.8446 417.926 51.7133 418.4 52.615C418.9 54.315 420 54.715 421.7 53.915C425 54.915 429.6 54.815 432.6 56.615C434 57.415 434.4 59.215 435.6 59.915C436.9 60.715 438.6 60.315 440 60.815C439.5 61.915 439.9 62.615 441.2 62.615C442.228 62.7049 443.238 62.9406 444.2 63.315C444.909 62.7862 445.681 62.3494 446.5 62.015C446.596 62.233 446.739 62.4273 446.918 62.5843C447.097 62.7413 447.308 62.8572 447.537 62.9239C447.766 62.9906 448.006 63.0065 448.242 62.9704C448.477 62.9343 448.702 62.8471 448.9 62.715C451.385 63.1558 453.664 64.3826 455.4 66.215C457.1 67.815 455.7 67.915 457.6 67.715C458.4 67.615 459.7 66.315 461.5 66.615C462.496 66.8087 463.469 67.1105 464.4 67.515C464.808 67.9425 465.356 68.2083 465.944 68.2634C466.532 68.3185 467.12 68.1593 467.6 67.815C469.4 68.715 469.6 70.315 471.9 70.515C474.4 70.715 473.6 67.615 475.3 72.015C477.6 67.415 478.5 74.815 480.8 75.415C483.3 76.015 483.5 74.015 485.6 76.215C486.2 76.915 486.2 77.915 486.9 78.615C488.1 79.715 489.6 79.515 490.7 81.115C490.1 80.215 490.8 84.215 490.8 84.015C491 85.715 489.4 87.715 492.6 87.515C492.6 87.715 491 89.915 490.8 89.615C490.7 89.315 490.7 89.115 490.6 88.815C490.3 88.915 490.1 91.115 490.2 91.415C490.5 91.415 490.6 91.215 490.5 90.815C490 92.415 490.8 93.515 489.8 95.015C489.2 96.015 487.4 96.715 486.5 97.315C484.3 98.815 482.1 100.215 479.9 101.815C474.8 105.415 469.1 109.815 462.7 110.615C465.9 107.415 484.5 95.515 475.2 92.015C473.013 91.3477 470.771 90.8791 468.5 90.615C466.3 90.415 463.9 91.715 461.5 90.915C458.5 89.915 459.6 87.115 457.8 86.115C453.9 84.015 454.8 89.015 453.6 90.315C452.3 89.015 452.6 88.315 450.6 88.215C448.5 88.115 448.1 90.015 445.7 88.815C442.4 87.215 444.1 83.915 439.5 83.915C439.6 83.215 440.3 81.215 439.4 80.615C438.2 82.215 439.1 83.915 438 85.415C437.294 86.2225 436.348 86.7831 435.3 87.015C433.2 87.615 432.9 88.715 433.3 85.515C431.8 88.315 427 87.115 424.2 86.915C419.512 86.4841 414.885 85.5452 410.4 84.115C406.4 82.715 404.2 80.415 400.9 78.315C399.6 77.515 399 77.815 397.2 77.315C395.1 77.315 393.3 76.315 394.2 74.215ZM403.8 25.115C404.5 24.715 405 30.915 404.1 32.015C402.6 29.615 399.9 26.115 403.8 25.115ZM406 22.615C408.2 20.615 406.7 25.815 406.3 26.615C405.5 26.115 404.7 25.515 403.8 25.015C404.8 24.515 405.1 23.415 406 22.615ZM489.5 14.315C510 18.615 530.2 26.615 546.6 39.815C561.5 51.815 572.1 68.915 578 87.015C584.1 105.815 582.1 126.715 567.5 141.215C559.8 148.815 549.7 153.415 540 157.815C535.4 159.915 530.6 161.715 525.9 163.815C522.6 165.315 518.5 167.715 514.7 167.315C516.6 165.315 519.5 165.215 521.8 164.015C524.6 162.515 527 159.615 529.4 157.515C531.8 155.415 537.2 148.915 541 150.515C540.5 147.015 544.4 145.415 546.2 143.215C548.1 140.815 548.2 138.015 551.7 137.215C548 134.315 549.1 128.815 549.9 124.915C550.834 119.991 551.469 115.016 551.8 110.015C552.5 100.715 553.1 88.915 548 80.715C546.3 78.015 544.2 75.615 542.7 72.915C540.9 69.615 541.3 66.715 541.3 63.015C538 65.215 537.3 60.715 536 58.515C535 56.915 533.6 55.915 533.3 53.915C533.1 52.415 534.7 52.115 533.8 50.615C532.7 51.415 532.3 52.715 531.7 53.915C530.7 53.515 531.9 52.115 531.3 51.615C531.3 51.615 529.3 50.715 529.4 50.915C528.1 49.315 527.7 46.715 527.1 44.815C524.8 46.015 525.2 45.815 522.7 43.915C521.628 43.2519 520.652 42.4443 519.8 41.515C518.8 39.115 520.5 40.515 520.1 39.015C518.7 34.715 510.9 35.515 510.2 29.115C506.4 31.515 504.9 28.115 502.7 25.615C500.4 23.115 496.5 22.115 496.7 18.215L493.1 19.415C493.7 15.715 488.3 16.015 486.3 14.115C487.37 14.0855 488.441 14.1524 489.5 14.315ZM492.6 241.415C494.5 239.715 493.9 242.015 495.1 241.715C496.1 241.515 496.3 240.715 497.3 240.415C501.4 239.415 507.6 240.715 511.9 240.415C516.9 240.215 525.5 241.215 527.9 247.115C529.3 250.615 527.1 249.415 524.7 249.215C522.898 249.182 521.095 249.249 519.3 249.415C518.403 249.515 517.497 249.515 516.6 249.415C516.193 249.129 515.907 248.701 515.8 248.215C513.2 247.815 510.5 249.315 507.6 249.415C503.8 249.515 500.4 248.815 497.5 246.215C496.3 247.915 495.6 248.815 493.5 249.015C493.4 249.015 491.4 248.215 491.1 248.115C490.7 248.015 489.6 248.915 488.8 248.615C490.3 246.215 490.5 243.315 492.6 241.415ZM753.7 261.815C754.4 259.515 754.9 257.115 755.6 254.715C765 265.415 773.3 279.815 777 293.615C779.4 302.615 783.2 318.815 771.7 323.415C762.3 327.215 757.1 313.715 754.7 307.015C749.4 292.415 749.4 276.715 753.7 261.815ZM331.5 93.515C331.6 93.515 325.4 97.115 327.4 94.215C328.2 93.015 331.4 92.215 332.7 92.215L331.5 93.515ZM325.6 95.115C324.9 95.715 324.2 96.315 323.4 96.915L321.3 93.615C322.6 92.915 328.5 92.515 325.6 95.115ZM321.2 207.715C319.9 206.815 318.9 207.315 318.5 208.815C318.5 207.315 319.3 203.915 320.4 203.515C321.2 203.215 317.9 199.315 318.8 198.315C321.2 199.615 319.7 200.915 320.4 202.715C320.7 203.515 321.6 204.215 321.9 204.815C322.2 205.815 323.6 209.415 321.2 207.715ZM314.8 198.915C313.5 199.215 315.8 201.415 315.8 202.415C315.8 203.115 314.9 203.715 314.5 204.715C313.7 206.915 315.1 208.415 312.8 210.015C312.8 205.215 309.6 192.515 315.8 190.215C312.8 187.815 315.3 185.115 317.6 187.915C319.9 190.715 318.5 198.015 314.8 198.915ZM311.6 180.015C310.4 175.715 306.7 174.215 302.6 174.515C302.8 172.315 304.4 169.115 305.6 173.115C306.1 171.915 306.4 170.415 307.6 169.615C309.5 175.615 319 178.915 313.1 185.315C312.5 183.615 312.1 181.815 311.6 180.015ZM300.5 174.815C278.5 176.415 247.7 181.015 230.1 164.115C218.6 153.115 219.3 136.015 228.5 123.815C233.8 116.815 241 111.915 248.2 107.315C250.744 105.625 253.502 104.28 256.4 103.315C256.887 103.259 257.379 103.364 257.8 103.615C257.88 103.267 258.038 102.941 258.264 102.664C258.489 102.386 258.775 102.164 259.1 102.015C260.3 101.415 262 101.115 262.7 99.815C262.032 102.307 261.564 104.848 261.3 107.415L259.5 105.315C259 110.015 254.1 107.115 251.2 107.715C253.1 110.315 254.5 111.315 254.6 114.815C253.2 112.215 250.2 110.415 247.4 109.615C248.9 114.015 250 116.715 248.5 121.615C246.7 120.615 246.6 118.115 244.3 117.515C243.7 120.415 243.6 123.615 242.9 126.415C237.2 123.815 237.8 130.815 240.1 134.215C241.3 136.015 241.9 138.215 243 139.915C245.7 144.215 243.6 137.815 246.6 138.115C245.9 142.715 245.7 143.115 249 146.415C252.3 149.715 253.9 154.215 257.4 157.215C258.4 155.915 256.8 154.615 256.7 153.315C259.9 153.815 261.5 157.115 264.6 154.215C266 156.815 267.4 159.815 270.7 160.315C268.6 156.215 274.8 159.015 276.4 159.615C277.6 160.015 279.8 160.415 280.3 160.615C283 161.615 281.1 159.815 282.7 163.015C285.1 162.315 286 160.315 288.8 162.015C291.1 163.315 291.1 165.715 291.6 168.015C292.1 166.515 292.7 164.915 293.3 163.415C293.9 163.715 296.5 166.515 296.2 166.515C302.5 166.215 302.3 170.015 300.5 174.815ZM269.7 97.715C270.9 96.815 272.4 98.015 273.8 97.715C275.7 97.315 276.8 95.715 278.9 95.515C278.3 97.415 277.2 97.215 276.3 98.715C276 99.215 276.1 100.415 275.9 100.715C273.5 103.115 272.7 101.115 270.3 99.315C270.5 101.515 270.9 102.215 268.9 102.815C267 103.315 263.9 101.415 262.9 99.815C263.6 98.215 268.2 98.715 269.7 97.715ZM284.8 94.215C286.9 94.415 284.4 100.415 281.4 94.615C282.519 94.3775 283.657 94.2436 284.8 94.215ZM295.3 93.115C298.5 92.415 309.3 89.415 310.5 94.415C310.7 94.315 311.5 91.415 311.9 91.815C313.4 93.215 313.6 95.015 313.4 97.015C311.6 93.215 312.2 96.515 311 96.315C310.7 96.215 310.2 96.815 309.4 96.615C308.3 96.315 307.6 94.015 306.9 93.315C305.8 94.915 304.4 96.915 302.2 96.815C300.6 96.715 298.1 92.615 300.1 97.115C298.9 96.715 297.5 95.815 296.2 96.015C294.7 96.215 293.9 97.715 292.5 97.915C289.4 98.415 288.9 95.415 286.9 93.815C289.7 93.515 292.6 93.615 295.3 93.115ZM314.9 93.015C315.1 92.015 318 91.615 318.7 91.915C320.5 92.715 319.8 93.815 319.5 95.515C318.2 94.915 316.9 94.315 315.6 93.615C317.5 96.815 314 97.215 314.9 93.015ZM862.8 276.815C862.6 269.315 862.4 261.615 860.4 254.315C859.1 249.215 855.8 240.015 849.6 239.115C840.3 237.815 835.1 256.215 832.5 262.615C832 255.115 832.4 247.215 829.6 240.115C827.3 234.415 821.6 229.015 816.7 235.415C812.3 241.115 811.5 249.515 810.3 256.315C808.8 265.115 807.9 274.115 806.8 283.015C802.5 274.715 801.8 265.315 798.4 256.715C795.2 248.615 790.2 240.915 785.4 233.715C781.5 227.815 776.7 222.315 770.5 218.715C765.1 215.615 755.7 212.215 750.6 217.415C746.3 221.715 747 227.515 747.2 233.015C747.3 235.415 747.7 237.115 745.5 238.315C744.4 238.915 742.8 238.615 741.6 238.915C739.806 239.437 738.138 240.322 736.7 241.515C725.6 249.715 720.5 264.515 719 277.715C717 294.415 723.5 308.815 729.1 324.115C730 326.515 732.8 331.715 732.4 334.415C732 337.415 728.2 337.515 725.7 337.515C717.952 337.598 710.206 337.23 702.5 336.415C684.4 334.715 666.4 326.015 650.2 318.215C647.2 316.815 643.1 316.015 640.7 313.715C638.4 311.615 637.8 308.215 635.9 305.815C631.1 299.915 628 294.915 621 291.315C613.8 287.715 606.5 284.315 599.4 280.315C590.7 275.415 582.7 269.115 574.4 263.615C558.9 253.415 543.6 242.115 527.2 233.415C519.6 229.415 511.1 228.715 503.1 225.415C495.4 222.215 485.9 222.215 477.9 224.215C474 225.215 471.3 227.515 467.7 229.115C463.5 230.915 460 228.915 456.3 226.815C450.6 223.515 445 218.215 453.1 214.615C455.8 213.415 459.3 212.915 461.7 211.115C464.3 209.115 466.3 205.415 468.4 202.815C473 197.215 475.8 190.715 482.5 187.215C490 183.315 498.8 182.315 506.8 179.815C515.4 177.115 523.9 173.815 532.3 170.615C547.6 164.915 563.4 158.715 574.4 146.015C583.9 135.115 588 121.015 587.6 106.715C586.8 77.515 571.2 47.815 548.7 29.515C521.1 7.11502 486.1 -0.384983 451.3 0.0150171C435 0.215017 415.5 2.31502 401.8 12.215C390 20.815 388.1 35.815 389.8 49.315C390.5 54.815 392.9 62.015 389.1 66.915C386.9 69.615 383 70.315 380.1 72.015C376.4 74.115 373.2 76.215 369 77.315C351.3 82.115 332.8 80.415 314.7 80.115C284.6 79.715 253.8 87.815 231.4 109.015C213.3 126.115 207.9 158.415 229.9 175.015C247.7 188.515 275.7 187.015 296.8 184.615C303.3 183.915 307.8 182.815 307.8 190.815C307.8 199.515 306.4 208.615 308.6 217.215C312.1 230.715 325.1 231.015 336.5 228.115C342.516 226.499 348.399 224.426 354.1 221.915C362.5 218.415 370.2 213.215 378.6 209.615C384.2 207.215 388.5 214.915 393.5 209.615C394.4 208.615 394.6 207.115 396 206.615C398.2 205.815 401.8 208.615 403.8 209.515C406.7 210.815 409.6 211.815 410.7 215.015C411.8 218.015 411.3 222.715 410.3 225.615C408.1 232.015 402.1 230.715 396.6 230.315C387 229.615 377.5 228.015 368 227.315C359.4 226.715 351.4 229.315 344 233.515C328.5 242.415 315.7 256.515 302.3 268.115C295.4 274.115 288.7 280.515 281.1 285.815C277.8 288.115 274.3 290.115 271.4 293.015C268.6 295.815 268.3 298.315 267.3 302.015C265.6 308.615 257 311.915 251.7 315.315C244.144 320.052 236.055 323.879 227.6 326.715C209.764 332.977 191.433 337.728 172.8 340.915C163.6 342.515 154.5 343.615 145.2 344.515C137.2 345.315 128.7 347.715 120.7 345.715C123 342.015 127.1 339.715 130.3 336.815C134.368 333.031 137.961 328.766 141 324.115C147 315.215 151.3 305.715 152.2 294.915C153.1 285.215 152.1 273.615 146.2 265.415C144.2 262.615 140.2 261.815 138.4 259.215C136.6 256.715 137.3 252.315 136.3 249.315C133.8 241.815 126.3 232.515 119.8 228.115C112.7 223.415 102.3 221.615 94.1 224.115C78.9 228.715 69.5 244.915 62.6 258.115C58.8 250.115 65.2 238.215 57.7 231.715C51.4 226.215 46.5 236.915 44.4 241.515C34.6 263.015 32.3 285.815 28.2 308.815C26.5 307.115 27.4 302.915 27.5 300.915C27.8 297.215 27.8 293.615 27.8 289.915C27.8 280.615 29.6 271.215 28.8 261.915C28.3 256.515 26.6 245.215 18.8 246.915C12.2 248.415 7.99999 257.815 5.89999 263.515C2.89999 271.715 2.19999 279.915 2.39999 288.615C2.59999 298.215 0.472086 306.078 0.299989 317.315C-0.0310532 338.93 0.299988 354.415 5.59999 372.415C12.5763 395.095 26.2172 415.15 44.748 429.971C63.2787 444.792 85.8413 453.693 109.5 455.515C118.7 456.115 127.5 455.015 136.6 454.115C145.6 453.215 154.6 452.715 163.5 451.615C183.4 449.215 202.8 442.915 220.9 434.415C230.4 429.915 239.4 424.515 248.7 419.715C252.5 417.815 255 415.415 258.2 412.715C261.4 410.115 262.3 409.915 265.9 409.915C264.8 407.115 267.9 406.215 269.3 404.415C269.184 405.277 269.117 406.145 269.1 407.015C270.2 404.715 271.1 404.715 272 407.115C272.9 404.515 273.6 401.815 274.6 399.315C278.7 401.415 278.4 406.415 283.9 402.715C288.4 399.715 292.6 396.215 297.3 393.315C307.9 386.615 317 378.015 327.6 371.415C327.6 377.815 328.1 384.315 327.2 390.715C326.4 396.815 324.1 402.415 322.3 408.315C319 419.015 318.7 430.515 315.1 441.115C313.6 445.515 309.6 449.215 308.5 453.515C307.3 457.915 310 461.415 305.5 464.215C302.3 466.215 298.4 467.115 294.9 468.315C289.5 470.215 284.5 472.815 279.3 475.015C254.9 485.515 231 496.115 208.4 510.215C186.9 523.615 165.1 537.415 145.4 553.215C128.3 567.015 111 584.815 106.8 607.215C102.8 629.015 113.5 652.415 135.2 659.515C146.5 663.215 159.2 662.815 170.9 662.915C183.5 663.115 196.9 660.015 209.3 657.815C222.4 655.515 235.3 651.815 248.4 649.815C261 647.815 272.6 643.415 284.9 640.615C298.1 637.715 311.6 636.115 324.9 633.515C330.9 632.315 336.7 630.615 342.7 629.515C349.3 628.315 355.9 627.915 362.4 626.315C375 623.215 387.1 618.315 399.7 615.415C405.4 614.115 411 612.415 416.7 611.215C421.9 610.115 426 607.115 431.3 609.615C435.5 611.615 438.9 614.915 442.9 617.215C448.1 620.215 453.6 622.915 459 625.515C469.9 630.715 481.2 634.415 492.6 638.315C504.6 642.415 516.3 647.115 528.8 649.915C541.5 652.715 554.5 653.515 567.3 655.715C593.367 660.146 619.759 662.387 646.2 662.415C659.7 662.515 673.1 660.915 686.6 661.115C698.5 661.315 708.8 663.915 719.7 657.615C737.1 647.515 757.2 632.315 756.8 610.215C756.4 590.215 744.4 571.115 733.1 555.315C719.4 536.115 699.9 522.615 680.8 509.415C660.4 495.315 637.6 485.615 616.1 473.315C605.2 467.015 595.1 460.215 583.2 455.815C577.5 453.715 572 451.215 566.4 448.915C561.9 447.115 555.4 446.015 551.5 443.015C549.1 441.115 548.9 438.215 548.2 435.315C546.676 429.093 544.738 422.979 542.4 417.015C538.352 405.322 535.438 393.266 533.7 381.015C532 369.315 528.2 357.115 530.2 345.215C543 357.615 556.2 369.615 569.4 381.615C574.3 386.115 579.2 390.815 584.1 395.315C587.8 398.715 592.5 403.715 597.6 404.715C604.2 406.015 601.8 398.715 606.3 397.515C609.1 396.815 617.4 403.915 619.6 405.315C633.5 414.115 648.9 419.715 664.2 425.715C680.2 432.015 696.7 437.615 714 439.215C730.027 440.574 746.167 438.946 761.6 434.415C792.2 425.715 814.8 405.215 831.3 378.615C850.2 348.515 863.9 313.015 862.8 276.815Z" fill="black"/>
<path fill-rule="evenodd" clip-rule="evenodd" d="M394.5 210.715L394.4 210.815C394.5 210.815 394.5 210.815 394.5 210.715Z" fill="black"/>
<path fill-rule="evenodd" clip-rule="evenodd" d="M396 211.115C395.873 210.158 395.638 209.219 395.3 208.315C394.3 209.915 393.4 210.615 394.7 212.315C395.11 211.89 395.544 211.49 396 211.115" fill="black"/>
<path fill-rule="evenodd" clip-rule="evenodd" d="M466.7 441.015C467.8 439.815 465.9 439.315 465.1 439.315C465.2 440.615 464.5 443.715 466.3 444.315C466.064 443.78 465.977 443.191 466.047 442.61C466.118 442.03 466.343 441.479 466.7 441.015" fill="black"/>
<path fill-rule="evenodd" clip-rule="evenodd" d="M436.7 188.315C434.8 192.115 439.1 193.215 441.6 191.415C443.5 190.015 444.6 186.515 444.9 184.315C445.9 177.115 440.8 170.215 438.3 163.715C437.6 162.015 436.8 156.315 434.7 156.215C432.3 156.015 432.1 161.315 432.1 162.615C432.167 166.75 432.945 170.843 434.4 174.715C435.6 178.915 439 183.915 436.7 188.315" fill="black"/>
<path fill-rule="evenodd" clip-rule="evenodd" d="M446 173.215C453.5 179.915 459.5 168.815 459 162.215C458.9 160.615 457.8 154.615 454.7 156.815C453.1 157.915 454.5 161.515 453.7 163.015C450.1 170.615 446.7 158.815 444.2 157.915C441.3 156.815 441 160.615 441 162.715C441.025 164.723 441.485 166.701 442.349 168.513C443.212 170.326 444.457 171.93 446 173.215" fill="black"/>
<path fill-rule="evenodd" clip-rule="evenodd" d="M418.8 174.215C420.6 171.415 422.7 167.715 423 164.415C423.4 159.215 420.4 159.715 417.9 163.315C416.1 165.915 414.8 170.215 411 169.115C406.2 167.815 407.7 161.315 405 158.315C398.1 167.315 410.9 186.615 418.8 174.215Z" fill="black"/>
<path fill-rule="evenodd" clip-rule="evenodd" d="M428.9 202.015C431.7 202.615 439 202.415 436.5 198.115C433.3 192.715 422.7 200.715 428.9 202.015Z" fill="black"/>
<path fill-rule="evenodd" clip-rule="evenodd" d="M526.8 41.315C527.3 39.815 526.6 39.515 525.4 38.315C524.3 39.315 525.7 40.515 526.8 41.315Z" fill="black"/>
<path fill-rule="evenodd" clip-rule="evenodd" d="M579 317.215C580.8 317.515 581.4 316.515 580.8 314.315C577.8 314.115 577.2 315.115 579 317.215Z" fill="black"/>
<path fill-rule="evenodd" clip-rule="evenodd" d="M478.3 81.815C480.3 82.715 479.6 84.615 479.5 86.315C480.5 85.215 482.7 83.115 481.8 81.415C480.5 78.915 477 81.215 478.3 81.815Z" fill="black"/>
<path fill-rule="evenodd" clip-rule="evenodd" d="M409 50.115L408.1 48.315C406.8 49.315 404.9 52.015 406.9 53.315C407.692 52.3113 408.394 51.2406 409 50.115" fill="black"/>
<path fill-rule="evenodd" clip-rule="evenodd" d="M433.4 67.915C435.9 69.915 434.7 63.815 434.6 63.315C434.3 64.015 432.1 66.915 433.4 67.915Z" fill="black"/>
<path fill-rule="evenodd" clip-rule="evenodd" d="M432 64.815L431.4 63.315C430.4 64.215 429.1 66.215 430.8 67.315C431.299 66.5331 431.702 65.6937 432 64.815" fill="black"/>
<path fill-rule="evenodd" clip-rule="evenodd" d="M448.1 85.715L448.7 86.315C449.5 84.615 448.6 83.415 447 83.315C447.114 84.2084 447.497 85.0457 448.1 85.715Z" fill="black"/>
<path fill-rule="evenodd" clip-rule="evenodd" d="M380.3 275.115C381.265 274.428 382.168 273.659 383 272.815C380 271.015 381.8 274.915 378.2 272.515C377.5 273.515 378.7 275.915 380.3 275.115Z" fill="black"/>
<path fill-rule="evenodd" clip-rule="evenodd" d="M505.1 440.315C506.2 438.615 506.4 438.615 504.9 437.315C503.6 439.415 503.7 438.915 505.1 440.315Z" fill="black"/>
<path fill-rule="evenodd" clip-rule="evenodd" d="M269 164.315C269.6 164.915 270.2 165.615 270.8 166.215C271.1 165.415 272.7 163.015 271.6 162.215C270.804 162.998 269.933 163.702 269 164.315Z" fill="black"/>
<path fill-rule="evenodd" clip-rule="evenodd" d="M290.9 170.715C289.9 170.515 287.6 169.815 287 170.715C288.4 171.915 291.7 170.815 290.9 170.715Z" fill="black"/>
</g>
<defs>
<clipPath id="clip0">
<rect width="862.866" height="662.924" fill="white"/>
</clipPath>
</defs>
</svg>
